/* XPM */
static char * ceiling_xpm[] = {
"64 64 40 1",
" 	c #081808",
".	c #394131",
"+	c #102010",
"@	c #001000",
"#	c #182918",
"$	c #203120",
"%	c #414A39",
"&	c #182010",
"*	c #081800",
"=	c #102008",
"-	c #292918",
";	c #313929",
">	c #4A5241",
",	c #203110",
"'	c #394A20",
")	c #314118",
"!	c #293918",
"~	c #525A52",
"{	c #5A6252",
"]	c #626A62",
"^	c #838B7B",
"/	c #73736A",
"(	c #737B73",
"_	c #8B9483",
":	c #949C8B",
"<	c #949C94",
"[	c #9CA494",
"}	c #ACB4A4",
"|	c #A4AC9C",
"1	c #ACB4AC",
"2	c #C5D5C5",
"3	c #BDCDBD",
"4	c #DEEEDE",
"5	c #CDDECD",
"6	c #C5CDC5",
"7	c #BDC5B4",
"8	c #313920",
"9	c #5A5200",
"0	c #393100",
"a	c #415220",
"  ...++@+++ ++ +##++# @@@#++++#++@+$$###+++++ +++ ++  #@@++..  +",
"@ ...@@@@@@ @ @@+#   @ @ +  @+           @@    @@@@@@@@@@@@.. +@",
"@ %.%#$$$$$#$#$$#$#&@@++@+ @**+=#+*#+++$$$$$$$$$$=+$# *==@@.. @ ",
"  ...-$;.;.$;;$.$$;;$$$$##+#++$#;;$$$#$;;.;;;$.$$$;;#$++#+@$. @#",
"+#...#$%%%>%>.%;>,;%>;$;#%;;;;%>;;'%;#+.>>>%>%>;%);;%%;;;;#$. @+",
"##;..!!#>~~{]^/^^^/((^^/(((^((^^^/(^^^^_((^^^/^^^^^^^^:!+++$.  #",
" #;.>#$$%%>..%%>>%~~>~~~~{~~~~{{~~{{~{{{~~~~>~>~%%%%.%^${.;>.  #",
"+ ....#$$]~%.>>~~>{{~{{]~]{{{]]]~{{]~{{]~{~{~{>~>>>%.(%{.;#..   ",
"  ..]#$##;]%~>>~{~{{{{]{]({~/]/]]]]]]/]]]]{{{{~~~~>%(%{;.#].. @+",
"@ %.](^.#$${///((/^^((^^^_^^^^^^^^^^^_^^^^^(((/((//^.{.;./^..  +",
"  ..]$#^;#$${;;%..%%.%>>>>>.>>>>>>>>>>>>>%%%%..%..(;{.;;(#:$. ++",
" +..]>..^;#$${~{{{]{]]]]]]]]]]/]]]]]]////]]]{{~{]^;{.;;(%.^$.  +",
"  ;.]>..%_.$.$/{{{/]]]]]]]]]]]]]]]/]]//(/]/]]~{{^;~$..^>>.^$. + ",
"  ;./{%>>~_;$%;/]/(/]////(//(^^/(^((/^(((((////_.~;#;(~~~>(>. @ ",
"  ;.]{>%>~{_.$%;//(/{]/////]//(/(//(/(//]]]]{]:.~;;.^>%>%%:..  +",
"  ..{%.%.>~>:.#;$]/{~{]]]]]]/]/]/]///////]{{{:$~;;.:{>>%>.^$.  @",
"@ ..]>>>>~{~{:.#;#{]]/(/(/(((/(((/(((/(^(//]:$~...:{{~~~~%^;> @@",
"  ..{//(/(^^^^:;#+$]^_:::::::_:::_::::::::_<$~$%;:^^^((((/^+> @ ",
"  $.];$;$;%.%%%^##;+/~~~~{{~{{]{{{{{{~~{{~<;~$$#^>>%%.;;;;^;  @ ",
"  $+]~~~~{/{////<$#$$(^(^^^(^^^^^^^^^^^^^<.~;;$<////]{{{{{^+@ @+",
"++$$/~~{{]]/////(<.#;$/^^^^^^^^^^^^^^^^^<.~;..</////(]]]]~^%$  +",
"##.$]{{{~](/////((<.#$$/^^^^^^^^^^^^^^^<.>$$.<((////(/]]]{^;#  +",
"++..]{{{~](]////((^<.#$$/^^________^^^<.%$$.<^(^^/(/(/]/]{^;. @+",
"@+..](//]^^(^^^^_^__<.#$%^::[[}}}}[::<$%.;.<^^^_^^^^^^/((//;. @@",
"+@.${/]]]^^/^(^^^^__^<$#$.^_<[[||<<<<.%$$$<^^^^^^^(((((//]^$. @@",
"  .$]>>~>{{{{]{]/]////<%#$$(^^^^^^^<$%$$%<//]/]/]]/{{{{~~>^;. @ ",
"+#.$]{{]/////(/^^(^^^^^<%#;;(<|||[|$%;;%<^^^(^(^((/{~~~>>>^.. @@",
"  >.]]]](((((^^^^^^_^___<;#$$^1231;%;+;<[:_^^^(/]{{%>>%%%%(.. @@",
"@ ..]///(^^(^^^^^^__^___<|$#{__^_^/$#$|<<_^^{_+>>>>.%%.%.%(.~#@@",
"@+>.]{{{]///(((^^^^^^^_::</$%$$$;$%#+:~.$;+#@< @@@@@@@@@@ ^.>++ ",
"  %>]]//((^(^(^^^^^^_::[[}1$.;;>%;%#+445263331;}:}[:[::__^(.. @@",
"  ;;]]//((((^^^^^^^__:<[|12$%$> ..>$+7|[[[:_^7~^^^^^((((/](..  +",
"@ $;]]/((((^^(^^^^^__:<[|15$%$> ..>$+3}[[<:_^^^^^^^(^((((](.$ @ ",
"@ $;]{]///(/^(((^^^^^_:[|17$.;;>%;%$+1|[[_^^^^^^^(^/(////{/.$+  ",
" +$.]~>{~{]{/]]]/////(^:<[}#%$$$;$%;$||<:(/(//]//]/{{{{{{>^%. @@",
"@@$.]((^^^^^:__:<::::<<|||;;{__^_^/$$~|||<:<:::::::___^__^^..   ",
"@@;.{{{/////^((^^^^^^^^^<$.$ $$##;$+$;(:^^^^(^^^(^(/////]](.. @@",
"@@..]{~~]]]](///(/(((^^<$.$ $<117[1$$;$(^(^(/(/(/((]]]]]{{(..+@@",
"@@.%];;;.%%%%>%~~>~~~{<..#@(:^^^^^^|;$$$^{~{~~~~>~~%%%%>../.. @@",
"@@..{_^^^:<^:<::<<|[<<$.$ ([}}1111}|<%$;;^<<:::::::^___^^^^..@@@",
"@@..{]{{~/(](///^(^^<.;$ ^^^_:::<::^^<%;;$/^^((^^(//(//]/{^..@@@",
"@@..]{{{{](///((^(^<... ^^^^^^_^^^^^^^<$$;./^(^^^/(/(///]{^..@@ ",
" @..{{{{{](////((^<.;$ /^^^^^^^^^^^_^^^<.$;#/(((^///(/]]]{/..@@ ",
"  ..{{{{{](/////(<.;;#/^^^^^^^^^^^^^^^^^<.$$$(/(////({]]]{^$.   ",
" +.$]>%>%~{{]{{{<;.;+//]/(/////////(///(/<.;;$/{{{{~{>>>>>];.  #",
"+#..]~~~~~]{]]]:$;$+(((((^^((^^^(^(^(^^^((<.;$$]///]]{~{~~{..  +",
"+ ..{{~{~{/]]/:$.+ //^^^^^^^^^_^^^^^^^^^^^^<$$.;{////{{{]~~$. @#",
"+ ..{>>>>~{~{:$.$+]]]/(((/(((/(((/(((((^^/((<#%.;]]{]~~~~>~;> @+",
"@ ..].#$$;%;_.;;+{~>.%~~>~~>~~~~{~~~~~~~~>%%%^;..$/..;;;$$/;. @@",
"# .${({]]/(:.;.;]^_^(^^^^_^^___^_________^^^(^:.;.$/(/]]/]{#$ @@",
"@ $~]~%%>~_;$%./{]/]]]/]]]]/(/(/(/(//(/((]/]]]]:..$;/~>>>%~;   @",
"@@$ ]~%%%^;;;%/]{]/]]]/]]]]]]//]]]/]]//(/]]]]]{{:.#$;{>%>.>;+$@@",
"@#$./%;;(;$$$/>{~~{~{{{{{{{{{{{{{{{{{]{]]{{{~~~~{_;..;{%.;/.$+ @",
"++$$/%.^.$$%{~>{{~/]{{]]{]{{{{{{{{{]{]{]{{{~>>>~>>_.;;;{;;~;$$#@",
"@ .;]%/%$$${{{~]]{//]]///^/](((//(((((((//]/]]]]]{{_;...]>~;.##@",
" #.;~/%$$;{>%>>~{~{]~{]]~]{{]]//]]/]~]]]{{{{~{~{>~~%^;..$] ;. @@",
"@@.$;$;.$]~%%>>~~>{{~{{{~{{{~{{]~{{]~{{]~{{{~{>~>>>>.^..;;.#; @@",
" #%.%$$;~%>%%%>>~>~~~~{{~{~{~{{]~~{]~{{]~~~{~~>~>>>%%%^$.%;.. @@",
"@@$.>$.~##.#$$$.;#....%..%.;%%%%%%%%..%%%%.%%.;;.$$$$$#{;%%.$ @@",
"  $$>$;~~~]]{{]{{]]{]]]]]]]]]]]{]]]/]]{]{]]]]{]]//]]{]]]+%%;$ @ ",
"  .;.>->>-888{8{{8{8{{{{{8>{8{888->>->.--!%8{>-9{{{{{{{{{>>;.+@ ",
"@+.;.~>{{{{]]{{/{]]{/]/]{8{/{{]]{{{{>~>~>>{~]]{{{/{]]]/]]]~;. @ ",
"@ .$;]%~>~]]~)/~]{/]/]]]0%~~/)~]/~>~%/{~~~]/~~a]~/]/]///{;8#; @ ",
"@ %.%..>...$$;$;..%>%$$+++$;$>>.>$;.>>%%.$$....%>>.%%.....%..#+@"};
