/* XPM */
static char * floor_xpm[] = {
"64 64 256 2",
"  	c #000000",
". 	c #0000FF",
"+ 	c #00FF00",
"@ 	c #FF0000",
"# 	c #00FFFF",
"$ 	c #FFFF00",
"% 	c #FF00FF",
"& 	c #FFFFFF",
"* 	c #7B7B7B",
"= 	c #7B7B7B",
"- 	c #7B7B7B",
"; 	c #7B7B7B",
"> 	c #7B7B7B",
", 	c #7B7B7B",
"' 	c #7B7B7B",
") 	c #7B7B7B",
"! 	c #7B7B7B",
"~ 	c #7B7B7B",
"{ 	c #7B7B7B",
"] 	c #7B7B7B",
"^ 	c #7B7B7B",
"/ 	c #7B7B7B",
"( 	c #7B7B7B",
"_ 	c #7B7B7B",
": 	c #7B7B7B",
"< 	c #7B7B7B",
"[ 	c #7B7B7B",
"} 	c #7B7B7B",
"| 	c #7B7B7B",
"1 	c #7B7B7B",
"2 	c #7B7B7B",
"3 	c #7B7B7B",
"4 	c #7B7B7B",
"5 	c #7B7B7B",
"6 	c #7B7B7B",
"7 	c #7B7B7B",
"8 	c #7B7B7B",
"9 	c #7B7B7B",
"0 	c #7B7B7B",
"a 	c #7B7B7B",
"b 	c #7B7B7B",
"c 	c #7B7B7B",
"d 	c #7B7B7B",
"e 	c #7B7B7B",
"f 	c #7B7B7B",
"g 	c #7B7B7B",
"h 	c #7B7B7B",
"i 	c #7B7B7B",
"j 	c #7B7B7B",
"k 	c #7B7B7B",
"l 	c #7B7B7B",
"m 	c #7B7B7B",
"n 	c #7B7B7B",
"o 	c #7B7B7B",
"p 	c #7B7B7B",
"q 	c #7B7B7B",
"r 	c #7B7B7B",
"s 	c #7B7B7B",
"t 	c #7B7B7B",
"u 	c #7B7B7B",
"v 	c #7B7B7B",
"w 	c #7B7B7B",
"x 	c #7B7B7B",
"y 	c #7B7B7B",
"z 	c #7B7B7B",
"A 	c #7B7B7B",
"B 	c #7B7B7B",
"C 	c #7B7B7B",
"D 	c #7B7B7B",
"E 	c #7B7B7B",
"F 	c #7B7B7B",
"G 	c #7B7B7B",
"H 	c #7B7B7B",
"I 	c #7B7B7B",
"J 	c #7B7B7B",
"K 	c #7B7B7B",
"L 	c #7B7B7B",
"M 	c #7B7B7B",
"N 	c #7B7B7B",
"O 	c #7B7B7B",
"P 	c #7B7B7B",
"Q 	c #7B7B7B",
"R 	c #7B7B7B",
"S 	c #7B7B7B",
"T 	c #7B7B7B",
"U 	c #7B7B7B",
"V 	c #7B7B7B",
"W 	c #7B7B7B",
"X 	c #7B7B7B",
"Y 	c #7B7B7B",
"Z 	c #7B7B7B",
"` 	c #7B7B7B",
" .	c #7B7B7B",
"..	c #7B7B7B",
"+.	c #7B7B7B",
"@.	c #7B7B7B",
"#.	c #7B7B7B",
"$.	c #7B7B7B",
"%.	c #7B7B7B",
"&.	c #7B7B7B",
"*.	c #7B7B7B",
"=.	c #7B7B7B",
"-.	c #7B7B7B",
";.	c #7B7B7B",
">.	c #7B7B7B",
",.	c #7B7B7B",
"'.	c #7B7B7B",
").	c #7B7B7B",
"!.	c #7B7B7B",
"~.	c #7B7B7B",
"{.	c #7B7B7B",
"].	c #7B7B7B",
"^.	c #7B7B7B",
"/.	c #7B7B7B",
"(.	c #7B7B7B",
"_.	c #7B7B7B",
":.	c #7B7B7B",
"<.	c #7B7B7B",
"[.	c #7B7B7B",
"}.	c #7B7B7B",
"|.	c #7B7B7B",
"1.	c #7B7B7B",
"2.	c #7B7B7B",
"3.	c #7B7B7B",
"4.	c #7B7B7B",
"5.	c #7B7B7B",
"6.	c #7B7B7B",
"7.	c #7B7B7B",
"8.	c #7B7B7B",
"9.	c #7B7B7B",
"0.	c #7B7B7B",
"a.	c #7B7B7B",
"b.	c #7B7B7B",
"c.	c #7B7B7B",
"d.	c #7B7B7B",
"e.	c #7B7B7B",
"f.	c #7B7B7B",
"g.	c #7B7B7B",
"h.	c #7B7B7B",
"i.	c #7B7B7B",
"j.	c #7B7B7B",
"k.	c #7B7B7B",
"l.	c #7B7B7B",
"m.	c #7B7B7B",
"n.	c #7B7B7B",
"o.	c #7B7B7B",
"p.	c #7B7B7B",
"q.	c #7B7B7B",
"r.	c #7B7B7B",
"s.	c #7B7B7B",
"t.	c #7B7B7B",
"u.	c #7B7B7B",
"v.	c #7B7B7B",
"w.	c #7B7B7B",
"x.	c #7B7B7B",
"y.	c #7B7B7B",
"z.	c #7B7B7B",
"A.	c #7B7B7B",
"B.	c #7B7B7B",
"C.	c #7B7B7B",
"D.	c #7B7B7B",
"E.	c #7B7B7B",
"F.	c #7B7B7B",
"G.	c #7B7B7B",
"H.	c #7B7B7B",
"I.	c #7B7B7B",
"J.	c #7B7B7B",
"K.	c #7B7B7B",
"L.	c #7B7B7B",
"M.	c #7B7B7B",
"N.	c #7B7B7B",
"O.	c #7B7B7B",
"P.	c #7B7B7B",
"Q.	c #7B7B7B",
"R.	c #7B7B7B",
"S.	c #7B7B7B",
"T.	c #7B7B7B",
"U.	c #7B7B7B",
"V.	c #7B7B7B",
"W.	c #7B7B7B",
"X.	c #7B7B7B",
"Y.	c #7B7B7B",
"Z.	c #7B7B7B",
"`.	c #7B7B7B",
" +	c #7B7B7B",
".+	c #7B7B7B",
"++	c #7B7B7B",
"@+	c #7B7B7B",
"#+	c #7B7B7B",
"$+	c #7B7B7B",
"%+	c #7B7B7B",
"&+	c #7B7B7B",
"*+	c #7B7B7B",
"=+	c #7B7B7B",
"-+	c #7B7B7B",
";+	c #7B7B7B",
">+	c #7B7B7B",
",+	c #7B7B7B",
"'+	c #7B7B7B",
")+	c #7B7B7B",
"!+	c #7B7B7B",
"~+	c #7B7B7B",
"{+	c #7B7B7B",
"]+	c #7B7B7B",
"^+	c #7B7B7B",
"/+	c #7B7B7B",
"(+	c #7B7B7B",
"_+	c #7B7B7B",
":+	c #7B7B7B",
"<+	c #7B7B7B",
"[+	c #7B7B7B",
"}+	c #7B7B7B",
"|+	c #7B7B7B",
"1+	c #7B7B7B",
"2+	c #7B7B7B",
"3+	c #7B7B7B",
"4+	c #7B7B7B",
"5+	c #7B7B7B",
"6+	c #7B7B7B",
"7+	c #7B7B7B",
"8+	c #7B7B7B",
"9+	c #7B7B7B",
"0+	c #7B7B7B",
"a+	c #7B7B7B",
"b+	c #7B7B7B",
"c+	c #7B7B7B",
"d+	c #7B7B7B",
"e+	c #7B7B7B",
"f+	c #7B7B7B",
"g+	c #7B7B7B",
"h+	c #7B7B7B",
"i+	c #7B7B7B",
"j+	c #7B7B7B",
"k+	c #7B7B7B",
"l+	c #7B7B7B",
"m+	c #7B7B7B",
"n+	c #7B7B7B",
"o+	c #7B7B7B",
"p+	c #7B7B7B",
"q+	c #7B7B7B",
"r+	c #7B7B7B",
"s+	c #7B7B7B",
"t+	c #7B7B7B",
"u+	c #7B7B7B",
"v+	c #7B7B7B",
"w+	c #525A52",
"x+	c #83837B",
"y+	c #5A6252",
"z+	c #73736A",
"A+	c #4A5241",
"B+	c #203120",
"C+	c #414A39",
"D+	c #313929",
"E+	c #626A62",
"F+	c #102010",
"G+	c #394131",
"F+F+F+F+F+B+D+D+D+D+D+D+D+D+D+D+D+D+D+D+D+D+D+D+D+D+D+D+D+D+D+D+D+D+D+D+D+D+D+D+D+D+D+D+D+D+D+D+D+D+D+D+D+D+D+D+D+D+B+F+F+F+F+F+",
"F+F+F+F+B+D+B+B+B+C+A+A+A+A+A+A+w+w+A+A+A+G+B+B+B+B+B+B+B+B+B+B+B+B+B+B+B+B+B+B+B+B+G+A+A+A+w+A+A+A+A+A+A+A+C+B+B+B+D+B+F+F+F+F+",
"F+F+F+B+D+B+B+B+G+A+A+A+A+w+w+A+A+A+A+A+w+w+A+G+B+B+B+B+B+B+B+B+B+B+B+B+B+B+B+B+G+A+A+A+w+w+A+A+w+A+w+A+w+A+A+G+B+B+B+D+B+F+F+F+",
"F+F+B+D+B+B+F+G+A+w+A+A+A+A+A+A+w+A+A+A+A+A+w+w+A+G+B+B+F+F+F+F+F+F+F+F+B+B+G+A+A+A+w+w+A+A+w+w+w+w+A+w+A+A+w+A+G+F+B+B+D+B+F+F+",
"F+B+D+B+B+F+G+w+A+A+w+E+E+E+E+E+E+E+w+w+w+w+A+A+w+A+A+A+A+A+A+A+A+A+w+A+A+w+A+w+w+A+w+A+y+z+E+y+y+y+y+y+E+w+A+A+w+G+F+B+B+D+B+F+",
"B+D+B+B+F+G+A+A+w+A+z+A+G+B+F+F+F+B+G+G+C+A+w+w+A+w+A+A+A+w+w+A+A+w+w+w+w+A+A+w+w+w+w+w+C+B+F+F+F+B+D+G+A+z+A+w+A+A+G+F+B+B+D+B+",
"D+B+B+F+G+A+w+w+A+z+A+G+C+D+F+F+F+D+A+C+G+B+G+w+E+E+E+E+E+E+E+E+E+E+E+E+E+E+E+E+E+y+A+G+C+D+F+F+F+D+C+C+D+A+z+A+w+w+A+G+F+B+B+D+",
"D+B+B+G+w+w+A+w+E+A+G+A+A+D+F+F+F+D+w+A+C+D+F+F+F+B+C+C+C+B+F+F+F+B+C+C+C+B+F+F+F+B+C+w+A+D+F+F+F+D+A+A+C+B+A+E+w+A+w+A+G+B+B+D+",
"D+B+G+A+A+w+w+E+C+B+A+w+w+G+F+F+F+D+y+w+w+G+F+F+F+D+w+A+A+D+F+F+F+D+w+A+A+D+F+F+F+D+w+y+w+G+F+F+F+D+y+w+A+D+F+C+E+w+w+w+A+G+B+D+",
"D+G+A+w+w+w+z+C+F+D+w+y+y+D+F+F+F+G+y+y+y+D+F+F+F+G+y+w+w+D+F+F+F+G+y+w+w+D+F+F+F+D+y+w+y+D+F+F+F+G+w+y+w+B+F+F+C+z+w+w+A+w+G+D+",
"D+A+w+A+w+z+C+F+F+D+y+E+y+G+F+F+F+G+E+E+E+G+F+F+F+G+w+y+y+D+F+F+F+G+w+y+y+D+F+F+F+G+E+E+y+G+F+F+F+G+y+w+w+D+F+F+F+C+E+w+w+w+A+D+",
"D+w+w+w+w+z+G+B+B+G+y+y+y+G+B+B+B+G+z+z+z+G+B+B+B+D+y+z+y+G+B+B+B+D+y+z+y+G+B+B+B+D+z+y+E+G+B+B+B+D+y+E+y+D+B+B+B+G+z+w+A+w+w+D+",
"D+w+A+w+A+y+G+B+B+G+z+z+E+G+B+B+B+G+z+z+E+G+B+B+B+G+z+z+E+G+B+B+B+G+z+z+E+G+B+B+B+G+z+z+E+G+B+B+B+G+z+z+E+G+B+B+B+G+z+y+w+y+A+D+",
"D+A+w+w+w+E+G+F+F+G+z+z+E+G+F+F+F+G+z+z+z+G+F+F+F+G+z+z+E+G+F+F+F+G+z+z+z+G+F+F+F+G+z+z+z+G+F+F+F+G+z+z+E+G+F+F+F+G+E+y+y+w+A+D+",
"D+w+A+w+y+E+G+F+F+G+z+E+z+G+F+F+F+G+z+E+z+G+F+F+F+G+z+E+z+G+F+F+F+G+z+E+z+G+F+F+F+G+z+E+z+G+F+F+F+G+z+E+z+G+F+F+F+G+E+w+w+y+w+D+",
"D+A+w+w+w+E+G+F+F+G+z+E+E+G+F+F+F+G+z+z+z+G+F+F+F+G+z+E+E+G+F+F+F+G+z+z+z+G+F+F+F+G+z+z+z+G+F+F+F+G+z+E+E+G+F+F+F+G+E+y+y+w+y+D+",
"D+w+A+y+w+y+G+F+F+G+z+z+y+G+F+F+F+G+z+z+z+G+F+F+F+G+z+z+y+G+F+F+F+G+z+z+z+G+F+F+F+G+z+z+z+G+F+F+F+G+z+z+y+G+F+F+F+G+E+y+w+y+y+D+",
"D+w+w+w+w+E+G+F+F+G+z+E+E+G+F+F+F+G+z+z+z+G+F+F+F+G+z+E+E+G+F+F+F+G+z+z+z+G+F+F+F+G+z+z+z+G+F+F+F+G+z+E+E+G+F+F+F+G+y+E+E+y+w+D+",
"D+w+w+w+y+z+G+F+F+G+z+z+E+G+F+F+F+G+z+z+z+G+F+F+F+G+z+z+E+G+F+F+F+G+z+z+z+G+F+F+F+G+z+z+z+G+F+F+F+G+z+z+E+G+F+F+F+G+E+y+y+w+w+D+",
"D+A+w+y+w+z+G+D+B+G+x+E+y+G+B+D+B+G+z+E+z+G+B+D+B+G+x+E+y+G+B+D+B+G+z+E+z+G+B+D+B+G+z+E+z+G+B+D+B+G+x+E+y+G+B+D+B+G+z+E+y+w+y+D+",
"D+w+A+w+y+E+G+B+B+G+z+z+E+G+B+B+B+G+z+z+z+G+B+B+B+G+z+z+E+G+B+B+B+G+z+z+z+G+B+B+B+G+z+z+z+G+B+B+B+G+z+z+E+G+B+B+B+G+E+y+w+y+w+D+",
"D+C+y+w+w+E+C+F+F+G+z+z+z+G+F+F+F+G+z+z+z+G+F+F+F+G+z+z+z+G+F+F+F+G+z+z+z+G+F+F+F+G+z+z+z+G+F+F+F+G+z+z+z+G+F+F+F+C+E+y+w+y+C+D+",
"D+B+w+w+y+y+A+F+F+G+z+z+z+G+F+F+F+G+z+z+z+G+F+F+F+G+z+z+z+G+F+F+F+G+z+z+z+G+F+F+F+G+z+z+z+G+F+F+F+G+z+z+z+G+F+F+F+A+y+y+y+w+B+D+",
"D+B+C+w+w+y+y+F+F+G+z+z+z+G+F+F+F+G+z+z+z+G+F+F+F+G+z+z+z+G+F+F+F+G+z+z+z+G+F+F+F+G+z+z+z+G+F+F+F+G+z+z+z+G+F+F+F+y+y+y+y+C+B+D+",
"D+B+B+w+y+w+y+F+F+G+z+z+E+G+F+F+F+G+z+z+E+G+F+F+F+G+z+z+E+G+F+F+F+G+z+z+E+G+F+F+F+G+z+z+E+G+F+F+F+G+z+z+E+G+F+F+F+y+w+y+w+B+B+D+",
"D+B+B+C+w+y+E+F+F+G+z+E+z+G+F+F+F+G+z+E+z+G+F+F+F+G+z+E+z+G+F+F+F+G+z+E+z+G+F+F+F+G+z+E+z+G+F+F+F+G+z+E+z+G+F+F+F+E+y+w+C+B+B+D+",
"D+B+B+B+w+y+y+F+F+G+z+z+E+G+F+F+F+G+z+z+z+G+F+F+F+G+z+z+E+G+F+F+F+G+z+z+z+G+F+F+F+G+z+z+z+G+F+F+F+G+z+z+E+G+F+F+F+y+y+w+B+B+B+D+",
"D+B+B+B+y+w+y+D+B+G+z+E+z+G+B+D+B+G+z+E+z+G+B+D+B+G+z+E+z+G+B+D+B+G+z+E+z+G+B+D+B+G+z+E+z+G+B+D+B+G+z+E+z+G+B+D+B+y+w+y+B+B+B+D+",
"D+B+B+F+w+y+E+B+B+G+z+z+E+G+B+B+B+G+z+z+z+G+B+B+B+G+z+z+E+G+B+B+B+G+z+z+z+G+B+B+B+G+z+z+z+G+B+B+B+G+z+z+E+G+B+B+B+E+y+w+F+B+B+D+",
"D+B+B+F+y+y+y+F+F+G+z+E+z+G+F+F+F+G+z+z+z+G+F+F+F+G+z+E+z+G+F+F+F+G+z+z+z+G+F+F+F+G+z+z+z+G+F+F+F+G+z+E+z+G+F+F+F+y+y+y+F+B+B+D+",
"D+B+B+F+y+E+E+F+F+G+z+z+E+G+F+F+F+G+z+z+E+G+F+F+F+G+z+z+E+G+F+F+F+G+z+z+E+G+F+F+F+G+z+z+E+G+F+F+F+G+z+z+E+G+F+F+F+E+E+y+F+B+B+D+",
"D+B+B+F+y+y+E+F+F+G+z+E+y+G+F+F+F+G+z+E+z+G+F+F+F+G+z+E+y+G+F+F+F+G+z+E+z+G+F+F+F+G+z+E+z+G+F+F+F+G+z+E+y+G+F+F+F+E+y+y+F+B+B+D+",
"D+B+B+F+E+y+z+F+F+G+E+z+z+G+F+F+F+G+E+z+z+G+F+F+F+G+E+z+z+G+F+F+F+G+E+z+z+G+F+F+F+G+E+z+z+G+F+F+F+G+E+z+z+G+F+F+F+z+y+E+F+B+B+D+",
"D+B+B+F+y+E+z+F+F+G+z+z+z+G+F+F+F+G+z+z+z+G+F+F+F+G+z+z+z+G+F+F+F+G+z+z+z+G+F+F+F+G+z+z+z+G+F+F+F+G+z+z+z+G+F+F+F+z+E+y+F+B+B+D+",
"D+B+B+F+w+E+E+F+F+G+z+z+z+G+F+F+F+G+z+z+z+G+F+F+F+G+z+z+z+G+F+F+F+G+z+z+z+G+F+F+F+G+z+z+z+G+F+F+F+G+z+z+z+G+F+F+F+E+E+w+F+B+B+D+",
"D+B+B+F+y+y+E+D+B+G+z+E+z+G+B+D+B+G+z+E+z+G+B+D+B+G+z+E+z+G+B+D+B+G+z+E+z+G+B+D+B+G+z+E+z+G+B+D+B+G+z+E+z+G+B+D+B+E+y+y+F+B+B+D+",
"D+B+B+B+y+E+y+B+B+G+E+z+z+G+B+B+B+G+E+z+z+G+B+B+B+G+E+z+z+G+B+B+B+G+E+z+z+G+B+B+B+G+E+z+z+G+B+B+B+G+E+z+z+G+B+B+B+y+E+y+B+B+B+D+",
"D+B+B+B+y+y+E+F+F+G+z+E+z+G+F+F+F+G+z+E+z+G+F+F+F+G+z+E+z+G+F+F+F+G+z+E+z+G+F+F+F+G+z+E+z+G+F+F+F+G+z+E+z+G+F+F+F+E+y+y+B+B+B+D+",
"D+B+B+C+y+y+E+F+F+G+E+z+z+G+F+F+F+G+E+z+z+G+F+F+F+G+E+z+z+G+F+F+F+G+E+z+z+G+F+F+F+G+E+z+z+G+F+F+F+G+E+z+z+G+F+F+F+E+y+y+C+B+B+D+",
"D+B+B+w+E+y+y+F+F+G+z+E+E+G+F+F+F+G+z+E+E+G+F+F+F+G+z+E+E+G+F+F+F+G+z+E+E+G+F+F+F+G+z+E+E+G+F+F+F+G+z+E+E+G+F+F+F+y+y+E+w+B+B+D+",
"D+B+C+y+y+y+y+F+F+G+E+E+E+G+F+F+F+G+E+E+E+G+F+F+F+G+E+E+E+G+F+F+F+G+E+E+E+G+F+F+F+G+E+E+E+G+F+F+F+G+E+E+E+G+F+F+F+y+y+y+y+C+B+D+",
"D+B+w+y+w+E+A+F+F+G+z+E+z+G+F+F+F+G+z+E+z+G+F+F+F+G+z+E+z+G+F+F+F+G+z+E+z+G+F+F+F+G+z+E+z+G+F+F+F+G+z+E+z+G+F+F+F+A+E+w+y+w+B+D+",
"D+C+y+w+y+E+C+F+F+G+E+z+z+G+F+F+F+G+E+z+z+G+F+F+F+G+E+z+z+G+F+F+F+G+E+z+z+G+F+F+F+G+E+z+z+G+F+F+F+G+E+z+z+G+F+F+F+C+E+y+w+y+C+D+",
"D+w+w+y+y+z+G+D+B+G+z+E+z+G+B+D+B+G+z+E+z+G+B+D+B+G+z+E+z+G+B+D+B+G+z+E+z+G+B+D+B+G+z+E+z+G+B+D+B+G+z+E+z+G+B+D+B+G+z+y+y+w+w+D+",
"D+w+y+w+y+z+G+B+B+G+z+E+E+G+B+B+B+G+z+E+E+G+B+B+B+G+z+E+E+G+B+B+B+G+z+E+E+G+B+B+B+G+z+E+E+G+B+B+B+G+z+E+E+G+B+B+B+G+z+y+w+y+w+D+",
"D+w+w+w+y+E+G+F+F+G+E+y+E+G+F+F+F+G+E+y+E+G+F+F+F+G+E+y+E+G+F+F+F+G+E+y+E+G+F+F+F+G+E+y+E+G+F+F+F+G+E+y+E+G+F+F+F+G+E+y+w+w+w+D+",
"D+w+y+y+y+z+G+F+F+G+E+E+z+G+F+F+F+G+E+E+z+G+F+F+F+G+E+E+z+G+F+F+F+G+E+E+z+G+F+F+F+G+E+E+z+G+F+F+F+G+E+E+z+G+F+F+F+G+z+y+y+y+w+D+",
"D+w+w+y+w+z+G+F+F+G+E+y+E+G+F+F+F+G+E+y+E+G+F+F+F+G+E+y+E+G+F+F+F+G+E+y+E+G+F+F+F+G+E+y+E+G+F+F+F+G+z+y+E+G+F+F+F+G+z+w+y+w+w+D+",
"D+w+y+w+w+z+G+F+F+G+y+y+y+G+F+F+F+G+y+y+y+G+F+F+F+G+y+y+y+G+F+F+F+G+y+y+y+G+F+F+F+G+y+y+y+G+F+F+F+G+E+E+z+D+F+F+F+G+z+w+w+y+w+D+",
"D+w+w+w+y+E+G+F+F+G+E+y+E+G+F+F+F+G+E+y+E+G+F+F+F+G+E+y+E+G+F+F+F+G+E+y+E+G+F+F+F+G+E+y+E+G+F+F+F+G+z+z+E+G+F+F+F+G+E+y+w+w+w+D+",
"D+w+y+y+y+z+G+F+F+G+z+y+E+G+F+F+F+G+z+y+E+G+F+F+F+G+z+y+E+G+F+F+F+G+z+y+E+G+F+F+F+G+z+y+E+G+F+F+F+G+z+E+z+G+F+F+F+G+z+y+y+y+w+D+",
"D+y+y+w+y+z+G+D+B+G+E+z+E+G+B+D+B+G+E+z+E+G+B+D+B+G+E+z+E+D+B+D+B+G+E+z+E+D+B+D+B+G+E+z+E+G+B+D+B+G+E+y+E+D+B+D+B+G+z+y+w+y+y+D+",
"D+w+w+y+w+z+G+B+B+G+y+y+y+G+B+B+B+G+z+z+z+G+B+B+B+D+y+z+y+G+B+B+B+D+y+z+y+G+B+B+B+D+z+y+E+G+B+B+B+D+y+E+y+D+B+B+B+G+z+w+y+w+w+D+",
"D+y+y+w+w+z+C+F+F+D+y+E+y+G+F+F+F+G+E+E+E+G+F+F+F+G+w+y+y+D+F+F+F+G+w+y+y+D+F+F+F+G+E+E+y+G+F+F+F+G+y+w+w+D+F+F+F+C+z+w+w+y+y+D+",
"D+G+w+y+w+w+z+C+F+D+w+y+y+D+F+F+F+G+y+y+y+D+F+F+F+G+y+w+w+D+F+F+F+G+y+w+w+D+F+F+F+D+y+w+y+D+F+F+F+G+w+y+w+B+F+F+C+z+w+w+y+w+G+D+",
"D+B+G+y+w+w+w+E+C+B+A+w+w+G+F+F+F+D+y+w+w+G+F+F+F+D+w+A+A+D+F+F+F+D+w+A+A+D+F+F+F+D+w+y+w+G+F+F+F+D+y+w+A+D+F+C+E+w+w+w+y+G+B+D+",
"D+B+B+G+y+w+A+w+E+A+G+A+A+D+F+F+F+D+w+A+C+D+F+F+F+B+C+C+C+B+F+F+F+B+C+C+C+B+F+F+F+B+C+w+A+D+F+F+F+D+A+A+C+B+A+E+w+A+w+y+G+B+B+D+",
"D+B+B+F+G+A+w+w+A+z+A+G+C+D+F+F+F+D+A+C+G+B+G+w+E+E+E+E+E+E+E+E+E+E+E+E+E+E+E+E+E+y+A+G+C+D+F+F+F+D+C+C+D+A+z+A+w+w+A+G+F+B+B+D+",
"B+D+B+B+F+G+A+A+w+A+z+A+G+B+F+F+F+B+G+G+C+A+w+w+A+w+A+A+A+w+w+A+A+w+w+w+w+A+A+w+w+w+w+w+C+B+F+F+F+B+D+G+A+z+A+w+A+A+G+F+B+B+D+B+",
"F+B+D+B+B+F+G+w+A+A+w+E+E+E+E+E+E+E+w+w+w+w+A+A+w+A+A+A+A+A+A+A+A+A+w+A+A+w+A+w+w+A+w+A+y+z+E+y+y+y+y+y+E+w+A+A+w+G+F+B+B+D+B+F+",
"F+F+B+D+B+B+F+G+A+w+A+A+A+A+A+A+w+A+A+A+A+A+w+w+A+G+B+B+F+F+F+F+F+F+F+F+B+B+G+A+A+A+w+w+A+A+A+w+A+A+A+A+A+A+w+A+G+F+B+B+D+B+F+F+",
"F+F+F+B+D+B+B+B+G+A+A+A+A+w+w+A+A+A+A+A+w+w+A+G+B+B+B+B+B+B+B+B+B+B+B+B+B+B+B+B+G+A+A+A+w+A+A+A+A+A+w+A+A+A+A+G+B+B+B+D+B+F+F+F+",
"F+F+F+F+B+D+B+B+B+C+A+A+A+A+A+A+w+w+A+A+A+G+B+B+B+B+B+B+B+B+B+B+B+B+B+B+B+B+B+B+B+B+G+A+A+A+w+A+A+A+A+A+A+A+C+B+B+B+D+B+F+F+F+F+",
"F+F+F+F+F+B+D+D+D+D+D+D+D+D+D+D+D+D+D+D+D+D+D+D+D+D+D+D+D+D+D+D+D+D+D+D+D+D+D+D+D+D+D+D+D+D+D+D+D+D+D+D+D+D+D+D+D+D+B+F+F+F+F+F+"};
