/* XPM */
static char * wall0_xpm[] = {
"64 64 256 2",
"  	c #000000",
". 	c #0000FF",
"+ 	c #00FF00",
"@ 	c #FF0000",
"# 	c #00FFFF",
"$ 	c #FFFF00",
"% 	c #FF00FF",
"& 	c #FFFFFF",
"* 	c #7B7B7B",
"= 	c #7B7B7B",
"- 	c #7B7B7B",
"; 	c #7B7B7B",
"> 	c #7B7B7B",
", 	c #7B7B7B",
"' 	c #7B7B7B",
") 	c #7B7B7B",
"! 	c #7B7B7B",
"~ 	c #7B7B7B",
"{ 	c #7B7B7B",
"] 	c #7B7B7B",
"^ 	c #7B7B7B",
"/ 	c #7B7B7B",
"( 	c #7B7B7B",
"_ 	c #7B7B7B",
": 	c #7B7B7B",
"< 	c #7B7B7B",
"[ 	c #7B7B7B",
"} 	c #7B7B7B",
"| 	c #7B7B7B",
"1 	c #7B7B7B",
"2 	c #7B7B7B",
"3 	c #7B7B7B",
"4 	c #7B7B7B",
"5 	c #7B7B7B",
"6 	c #7B7B7B",
"7 	c #7B7B7B",
"8 	c #7B7B7B",
"9 	c #7B7B7B",
"0 	c #7B7B7B",
"a 	c #7B7B7B",
"b 	c #7B7B7B",
"c 	c #7B7B7B",
"d 	c #7B7B7B",
"e 	c #7B7B7B",
"f 	c #7B7B7B",
"g 	c #7B7B7B",
"h 	c #7B7B7B",
"i 	c #7B7B7B",
"j 	c #7B7B7B",
"k 	c #7B7B7B",
"l 	c #7B7B7B",
"m 	c #7B7B7B",
"n 	c #7B7B7B",
"o 	c #7B7B7B",
"p 	c #7B7B7B",
"q 	c #7B7B7B",
"r 	c #7B7B7B",
"s 	c #7B7B7B",
"t 	c #7B7B7B",
"u 	c #7B7B7B",
"v 	c #7B7B7B",
"w 	c #7B7B7B",
"x 	c #7B7B7B",
"y 	c #7B7B7B",
"z 	c #7B7B7B",
"A 	c #7B7B7B",
"B 	c #7B7B7B",
"C 	c #7B7B7B",
"D 	c #7B7B7B",
"E 	c #7B7B7B",
"F 	c #7B7B7B",
"G 	c #7B7B7B",
"H 	c #7B7B7B",
"I 	c #7B7B7B",
"J 	c #7B7B7B",
"K 	c #7B7B7B",
"L 	c #7B7B7B",
"M 	c #7B7B7B",
"N 	c #7B7B7B",
"O 	c #7B7B7B",
"P 	c #7B7B7B",
"Q 	c #7B7B7B",
"R 	c #7B7B7B",
"S 	c #7B7B7B",
"T 	c #7B7B7B",
"U 	c #7B7B7B",
"V 	c #7B7B7B",
"W 	c #7B7B7B",
"X 	c #7B7B7B",
"Y 	c #7B7B7B",
"Z 	c #7B7B7B",
"` 	c #7B7B7B",
" .	c #7B7B7B",
"..	c #7B7B7B",
"+.	c #7B7B7B",
"@.	c #7B7B7B",
"#.	c #7B7B7B",
"$.	c #7B7B7B",
"%.	c #7B7B7B",
"&.	c #7B7B7B",
"*.	c #7B7B7B",
"=.	c #7B7B7B",
"-.	c #7B7B7B",
";.	c #7B7B7B",
">.	c #7B7B7B",
",.	c #7B7B7B",
"'.	c #7B7B7B",
").	c #7B7B7B",
"!.	c #7B7B7B",
"~.	c #7B7B7B",
"{.	c #7B7B7B",
"].	c #7B7B7B",
"^.	c #7B7B7B",
"/.	c #7B7B7B",
"(.	c #7B7B7B",
"_.	c #7B7B7B",
":.	c #7B7B7B",
"<.	c #7B7B7B",
"[.	c #7B7B7B",
"}.	c #7B7B7B",
"|.	c #7B7B7B",
"1.	c #7B7B7B",
"2.	c #7B7B7B",
"3.	c #7B7B7B",
"4.	c #7B7B7B",
"5.	c #7B7B7B",
"6.	c #7B7B7B",
"7.	c #7B7B7B",
"8.	c #7B7B7B",
"9.	c #7B7B7B",
"0.	c #7B7B7B",
"a.	c #7B7B7B",
"b.	c #7B7B7B",
"c.	c #7B7B7B",
"d.	c #7B7B7B",
"e.	c #7B7B7B",
"f.	c #7B7B7B",
"g.	c #7B7B7B",
"h.	c #7B7B7B",
"i.	c #7B7B7B",
"j.	c #7B7B7B",
"k.	c #7B7B7B",
"l.	c #7B7B7B",
"m.	c #7B7B7B",
"n.	c #7B7B7B",
"o.	c #7B7B7B",
"p.	c #7B7B7B",
"q.	c #7B7B7B",
"r.	c #7B7B7B",
"s.	c #7B7B7B",
"t.	c #7B7B7B",
"u.	c #7B7B7B",
"v.	c #7B7B7B",
"w.	c #7B7B7B",
"x.	c #7B7B7B",
"y.	c #7B7B7B",
"z.	c #7B7B7B",
"A.	c #7B7B7B",
"B.	c #7B7B7B",
"C.	c #7B7B7B",
"D.	c #7B7B7B",
"E.	c #7B7B7B",
"F.	c #7B7B7B",
"G.	c #7B7B7B",
"H.	c #7B7B7B",
"I.	c #7B7B7B",
"J.	c #7B7B7B",
"K.	c #7B7B7B",
"L.	c #7B7B7B",
"M.	c #7B7B7B",
"N.	c #7B7B7B",
"O.	c #7B7B7B",
"P.	c #7B7B7B",
"Q.	c #7B7B7B",
"R.	c #7B7B7B",
"S.	c #7B7B7B",
"T.	c #7B7B7B",
"U.	c #7B7B7B",
"V.	c #7B7B7B",
"W.	c #7B7B7B",
"X.	c #7B7B7B",
"Y.	c #7B7B7B",
"Z.	c #7B7B7B",
"`.	c #7B7B7B",
" +	c #7B7B7B",
".+	c #7B7B7B",
"++	c #7B7B7B",
"@+	c #7B7B7B",
"#+	c #7B7B7B",
"$+	c #7B7B7B",
"%+	c #7B7B7B",
"&+	c #7B7B7B",
"*+	c #7B7B7B",
"=+	c #7B7B7B",
"-+	c #7B7B7B",
";+	c #7B7B7B",
">+	c #7B7B7B",
",+	c #7B7B7B",
"'+	c #7B7B7B",
")+	c #7B7B7B",
"!+	c #7B7B7B",
"~+	c #7B7B7B",
"{+	c #7B7B7B",
"]+	c #7B7B7B",
"^+	c #7B7B7B",
"/+	c #7B7B7B",
"(+	c #7B7B7B",
"_+	c #7B7B7B",
":+	c #7B7B7B",
"<+	c #7B7B7B",
"[+	c #7B7B7B",
"}+	c #7B7B7B",
"|+	c #7B7B7B",
"1+	c #7B7B7B",
"2+	c #7B7B7B",
"3+	c #7B7B7B",
"4+	c #7B7B7B",
"5+	c #7B7B7B",
"6+	c #7B7B7B",
"7+	c #7B7B7B",
"8+	c #7B7B7B",
"9+	c #7B7B7B",
"0+	c #7B7B7B",
"a+	c #7B7B7B",
"b+	c #7B7B7B",
"c+	c #7B7B7B",
"d+	c #7B7B7B",
"e+	c #7B7B7B",
"f+	c #7B7B7B",
"g+	c #313929",
"h+	c #394131",
"i+	c #292918",
"j+	c #5A6252",
"k+	c #203110",
"l+	c #414A31",
"m+	c #203120",
"n+	c #182010",
"o+	c #414A39",
"p+	c #4A5241",
"q+	c #182918",
"r+	c #394129",
"s+	c #626A62",
"t+	c #525A41",
"u+	c #182910",
"v+	c #73736A",
"w+	c #001000",
"x+	c #5A6241",
"y+	c #838B7B",
"z+	c #737B73",
"A+	c #837B62",
"B+	c #8B836A",
"C+	c #101808",
"D+	c #393929",
"E+	c #525A52",
"F+	c #313920",
"G+	c #525239",
"o+p+o+g+h+g+o+g+h+h+o+o+o+h+h+g+g+h+g+h+g+h+h+h+g+g+h+h+o+h+o+o+h+o+h+h+h+o+h+g+h+h+o+g+h+g+h+g+h+h+h+o+o+o+o+o+o+o+g+h+g+o+p+o+",
"g+h+h+g+g+o+o+h+o+o+h+h+o+h+o+h+h+h+h+g+o+h+o+h+g+h+o+p+o+p+o+o+o+p+o+o+p+o+o+p+o+o+o+o+h+o+o+g+g+o+h+o+h+h+o+h+h+h+g+o+h+h+o+h+",
"g+g+h+g+h+h+h+h+o+p+o+o+h+g+h+h+g+g+g+h+h+o+o+o+h+g+h+o+p+o+p+E+p+E+E+p+p+p+p+o+p+o+o+h+h+g+g+g+h+h+g+h+o+o+p+o+h+g+h+h+h+o+h+h+",
"g+h+g+g+h+o+g+h+h+h+q+q+m+q+q+m+q+q+q+q+q+q+q+q+m+q+q+q+q+q+q+m+q+m+q+q+q+q+q+q+q+q+q+q+m+m+q+m+m+m+q+q+q+q+m+q+m+F+o+h+g+g+h+o+",
"h+g+h+h+o+h+D+m+q+q+q+q+m+q+m+q+q+q+q+q+q+q+q+m+q+q+q+m+q+q+m+m+q+q+q+q+m+q+m+m+q+q+q+q+q+q+q+q+m+q+q+q+q+q+q+q+q+F+h+o+h+h+g+h+",
"g+g+o+g+h+F+F+n+n+q+q+F+D+D+r+h+D+r+g+F+g+F+g+g+F+h+F+F+F+h+g+g+F+F+g+g+g+g+D+h+D+h+h+g+g+g+g+g+h+D+D+g+F+F+q+q+q+q+F+h+g+o+g+g+",
"g+h+h+h+g+m+n+q+q+i+g+h+F+D+r+h+D+D+g+D+h+F+g+h+F+h+F+D+q+h+g+g+F+F+g+g+g+g+D+g+F+g+h+g+g+g+g+g+h+D+D+g+h+g+F+q+q+q+q+F+h+h+h+g+",
"g+g+h+g+F+q+q+q+F+F+F+F+F+F+F+g+D+g+r+D+F+F+g+F+F+D+i+q+q+i+h+F+F+h+h+D+F+g+h+g+g+h+g+h+h+h+g+F+F+F+F+F+F+g+D+F+F+q+q+i+F+h+g+o+",
"o+h+h+g+q+C+q+F+h+F+F+F+F+g+F+D+h+r+h+D+F+F+F+D+D+g+F+q+q+q+h+F+l+l+h+r+l+h+o+o+h+l+r+h+g+g+g+g+g+g+h+F+F+F+F+h+F+F+q+q+q+h+h+o+",
"h+h+D+h+q+q+i+i+F+F+F+F+F+F+F+g+h+F+F+F+D+F+F+F+F+D+F+q+q+q+q+r+h+o+o+l+r+h+D+D+r+D+D+F+h+h+h+h+g+F+F+F+F+F+F+F+F+m+q+q+q+D+h+h+",
"o+o+g+o+F+i+m+i+q+q+i+i+i+i+i+i+i+i+i+q+i+i+q+q+q+q+q+q+C+C+i+m+i+q+q+q+m+m+q+q+q+i+i+q+q+i+q+q+m+q+m+i+q+i+q+i+m+m+q+q+i+g+h+h+",
"h+h+h+E+g+i+q+q+q+q+q+q+q+q+q+q+q+i+q+q+q+q+q+q+q+q+q+C+C+n+q+q+q+q+q+q+q+q+q+q+q+q+q+q+q+q+q+q+q+q+q+q+q+q+q+q+q+q+g+i+i+g+h+o+",
"o+h+g+v+o+h+p+t+p+p+p+p+p+p+p+o+o+p+p+p+o+p+p+p+p+p+p+q+C+q+p+o+o+p+l+o+o+o+p+p+o+p+o+o+p+p+t+o+o+p+p+o+p+p+p+p+p+p+p+j+p+h+h+o+",
"h+g+F+j+E+o+j+j+j+j+j+j+E+j+j+j+j+j+j+j+E+E+j+j+E+j+j+g+C+n+g+E+E+E+E+j+E+j+E+E+j+j+j+j+j+E+j+j+j+j+E+j+E+j+j+j+j+j+j+o+E+h+o+o+",
"h+h+D+j+E+m+h+F+r+F+g+h+F+F+F+r+g+h+r+g+F+F+h+h+h+h+g+E+E+o+o+E+F+F+h+D+h+D+g+D+D+D+D+r+h+g+g+F+F+g+g+h+F+g+g+F+g+g+m+p+j+p+h+o+",
"h+o+p+s+E+g+F+g+F+F+F+h+F+F+D+r+h+g+g+h+D+D+h+g+h+g+h+h+o+E+E+D+r+g+F+D+q+i+F+g+h+h+F+F+h+r+F+h+D+D+i+m+F+g+g+F+g+F+g+p+s+p+o+h+",
"h+h+o+j+j+m+g+r+g+F+h+g+g+F+F+h+r+h+h+D+D+h+h+D+h+h+l+l+g+h+x+G+l+l+l+l+q+G+o+g+h+D+r+i+o+D+F+h+i+C+q+E+D+D+D+g+o+h+m+j+E+o+o+g+",
"h+o+h+s+E+m+g+r+g+g+h+g+g+F+F+h+r+h+D+l+l+D+l+o+o+D+o+F+q+w+j+l+l+l+l+n+m+t+h+o+D+D+D+i+o+l+h+i+q+C+i+p+h+h+D+g+o+h+m+E+j+o+h+o+",
"g+h+h+s+j+m+h+g+F+g+g+h+h+F+h+h+i+q+F+h+D+D+o+l+l+o+F+q+w+w+v+l+F+o+n+w+j+D+D+D+D+l+w+i+o+D+o+o+E+E+E+g+h+D+h+h+h+h+m+j+p+h+g+o+",
"g+h+o+s+j+m+g+g+F+h+h+g+F+F+m+q+q+i+F+F+D+h+l+o+o+F+q+w+w+j+l+D+i+q+w+o+o+g+D+D+o+w+w+o+D+h+F+r+p+j+o+h+F+h+o+h+g+h+m+p+o+h+o+h+",
"h+o+o+s+E+m+i+q+q+i+m+q+q+i+q+q+q+q+i+i+i+m+i+m+i+n+w+w+s+m+q+q+q+n+w+t+i+m+i+m+w+w+E+m+i+i+i+m+i+m+q+i+i+m+i+m+i+q+m+E+o+h+h+h+",
"g+o+h+s+j+m+q+q+q+q+q+q+q+q+n+C+C+q+i+i+F+q+q+q+n+w+w+w+p+q+q+q+q+w+w+q+q+C+C+C+w+w+C+C+C+C+C+C+C+C+C+C+C+C+q+q+q+q+m+p+p+h+o+h+",
"o+o+o+j+E+h+p+o+o+p+o+o+p+l+D+F+q+m+m+o+g+p+h+q+w+w+w+s+p+o+D+q+w+w+t+E+l+h+q+w+w+s+o+l+o+p+p+p+p+p+p+l+p+E+p+p+p+o+g+E+E+o+o+o+",
"o+o+h+E+E+o+E+E+E+E+E+p+E+j+E+h+g+g+g+D+D+h+q+w+w+w+s+l+p+l+F+q+w+w+j+o+o+F+w+w+w+j+g+o+j+E+E+p+E+E+p+p+j+E+E+E+j+E+g+p+E+h+o+p+",
"h+o+o+E+p+g+h+g+m+h+g+F+h+o+p+p+o+l+r+r+D+q+w+w+w+j+F+F+D+i+n+w+w+j+p+l+q+w+w+w+E+p+h+h+h+l+h+r+D+r+D+l+h+o+h+o+h+h+m+p+j+o+p+o+",
"o+o+o+j+p+g+h+g+m+r+g+h+l+D+o+p+E+E+E+q+n+w+w+w+w+s+F+l+l+n+w+w+j+o+o+q+w+w+w+j+l+h+o+D+l+F+r+D+F+F+D+h+l+l+g+g+l+h+g+p+E+o+p+o+",
"h+o+h+s+p+g+g+g+g+q+g+g+r+o+D+r+r+F+r+q+w+w+w+w+j+F+l+D+q+w+w+w+j+h+q+q+w+w+o+o+o+D+l+l+o+D+l+r+l+F+D+h+p+o+F+g+g+h+g+o+E+p+o+p+",
"h+o+o+s+p+g+h+g+F+q+q+F+r+D+F+F+r+n+i+w+w+w+w+j+r+r+q+q+w+w+w+j+p+D+q+w+w+j+p+o+D+l+h+o+l+F+r+o+F+F+q+o+o+F+F+g+h+h+g+o+E+o+o+o+",
"o+o+p+j+p+g+h+g+r+h+F+F+r+D+F+k+k+w+w+w+w+s+x+r+r+n+w+w+w+w+j+l+q+q+w+w+w+o+F+l+D+o+h+F+F+F+F+F+q+q+m+j+o+F+g+g+h+g+g+p+E+p+h+o+",
"o+o+p+E+E+g+g+h+r+D+D+D+r+r+F+i+w+w+x+p+p+F+l+n+n+w+w+w+p+G+h+m+n+w+w+w+j+o+l+h+h+h+D+r+q+q+q+q+q+q+E+o+h+o+h+h+g+h+g+E+E+o+h+o+",
"h+p+o+E+E+g+m+m+m+m+F+F+F+m+F+i+q+F+F+F+F+F+q+w+w+w+G+p+F+g+q+w+w+w+o+l+F+g+g+g+F+F+i+n+n+n+n+q+F+o+g+m+g+m+g+m+m+m+g+p+s+h+o+o+",
"h+o+o+j+E+h+q+q+q+q+q+q+q+q+q+q+q+q+q+q+C+w+w+w+w+g+C+C+C+C+w+w+w+C+C+C+C+C+C+C+C+C+C+C+C+C+C+C+q+q+q+q+q+q+q+q+q+q+h+E+j+h+o+o+",
"h+h+o+s+j+g+o+o+o+o+o+o+o+p+o+l+h+q+q+n+w+w+w+j+t+r+D+h+g+w+w+E+o+h+i+F+q+F+D+F+r+D+F+F+o+h+h+o+h+h+p+o+o+p+p+o+o+o+g+p+v+h+o+h+",
"o+o+o+s+j+g+E+E+E+j+E+j+E+E+E+p+n+w+w+w+w+j+j+E+p+p+o+o+t+E+x+E+o+h+h+h+h+D+r+o+l+r+l+E+p+o+o+E+E+E+o+j+E+E+E+E+E+E+g+p+s+h+p+o+",
"h+o+p+s+j+h+g+g+g+h+l+h+o+F+D+j+w+w+p+j+E+E+l+l+D+l+F+F+r+l+h+p+p+p+h+h+F+F+F+F+F+r+o+l+D+l+l+h+h+g+D+h+h+h+h+g+g+g+h+o+s+o+p+h+",
"h+p+o+s+E+g+l+g+g+h+F+o+F+h+l+D+x+j+r+p+l+o+G+t+o+o+D+F+q+q+D+D+D+p+p+E+E+E+t+G+l+l+l+F+r+D+h+h+r+l+F+h+F+h+h+h+g+g+g+o+s+o+p+o+",
"h+p+o+v+E+h+g+g+g+h+F+F+l+l+F+l+F+l+o+l+o+t+D+F+n+n+q+C+C+i+D+r+r+l+o+E+j+s+s+j+r+q+l+F+o+r+r+D+l+l+o+h+g+F+F+F+F+g+h+o+v+p+o+o+",
"o+h+p+v+E+h+F+g+h+D+F+F+D+r+D+F+r+l+l+l+F+F+q+n+n+g+o+G+l+D+r+l+l+l+D+D+l+o+E+j+p+q+F+h+h+F+h+l+o+o+o+o+r+h+g+F+F+D+h+o+s+p+o+h+",
"h+h+p+z+E+h+F+F+D+h+h+F+F+r+D+g+h+G+F+F+q+C+C+D+p+p+o+o+l+l+l+r+D+F+q+i+i+F+r+p+p+p+i+g+F+h+o+o+p+j+G+l+h+l+g+g+r+D+g+o+v+p+o+o+",
"h+p+o+v+E+h+F+g+h+o+h+F+r+r+r+h+o+o+i+q+C+n+F+E+l+F+D+r+D+l+F+D+F+i+q+C+C+q+q+q+g+E+p+h+E+E+p+E+E+l+q+q+h+p+p+o+g+g+D+o+j+o+h+h+",
"h+p+p+v+E+h+q+q+m+m+m+g+F+F+g+F+q+C+C+C+i+p+p+F+F+F+F+F+F+F+F+F+i+q+C+w+w+w+n+q+q+q+r+r+F+F+q+m+q+q+q+m+q+m+m+m+i+i+h+o+j+o+h+h+",
"h+p+p+s+j+F+n+n+q+q+q+q+q+n+n+n+C+C+n+q+F+F+q+q+q+q+q+q+q+q+q+q+n+n+w+w+w+q+q+q+i+q+q+q+q+q+F+q+q+q+q+q+q+q+q+q+n+n+g+o+E+p+o+h+",
"o+o+p+s+j+F+o+D+l+o+o+h+o+o+h+o+F+F+F+g+F+F+F+g+D+F+r+l+l+l+F+m+q+w+w+w+i+h+g+h+o+D+D+r+r+F+D+D+D+l+D+o+o+h+h+h+o+h+g+p+E+o+p+h+",
"h+o+p+j+s+F+E+o+p+E+E+E+E+E+j+o+E+o+o+l+o+o+o+o+r+l+E+o+E+s+E+q+q+q+q+q+o+j+E+E+E+o+r+r+o+p+o+p+p+E+E+E+E+E+E+E+E+E+F+p+v+p+o+h+",
"o+h+p+j+s+g+D+g+F+F+h+g+h+r+h+g+F+F+F+F+F+g+F+F+r+l+l+l+o+j+E+h+m+h+p+s+s+v+s+p+o+l+r+r+D+F+h+D+h+h+h+l+h+h+h+g+g+g+F+p+s+o+o+o+",
"h+o+o+s+v+g+D+g+F+F+g+h+g+g+g+g+F+F+F+F+g+F+F+D+F+D+F+D+l+o+G+p+s+s+s+s+E+p+p+r+l+D+F+F+F+F+D+h+h+h+g+g+h+D+h+g+h+g+F+p+v+o+p+o+",
"h+p+o+s+s+h+g+F+F+F+g+g+g+g+h+F+F+F+g+g+F+F+F+F+F+F+F+l+D+r+l+o+o+o+p+o+o+l+l+l+F+F+D+l+F+h+g+F+F+g+i+h+r+D+h+h+g+g+D+E+v+o+p+h+",
"h+o+h+j+s+F+D+F+F+F+F+h+F+F+F+F+r+D+h+F+F+F+F+F+F+F+l+D+l+D+D+r+r+r+r+D+D+D+F+F+F+r+l+D+h+g+F+F+h+o+F+g+r+D+D+D+g+g+F+E+s+p+o+o+",
"h+o+h+z+v+g+D+F+F+i+q+F+F+F+F+D+D+r+D+F+F+F+F+F+D+F+D+o+o+D+D+D+D+D+F+l+D+F+F+F+D+r+l+h+F+F+g+i+F+g+i+h+r+D+D+F+F+g+F+E+v+o+p+h+",
"h+g+o+y+v+F+F+D+F+F+q+q+g+F+h+h+h+F+F+F+F+F+F+g+F+l+l+D+l+D+l+D+l+D+D+D+F+F+r+D+h+F+h+F+g+g+i+i+g+i+g+g+r+g+F+F+F+D+F+p+s+o+h+h+",
"o+g+h+z+v+F+i+F+i+i+i+q+q+m+F+m+F+m+m+F+F+F+F+F+g+g+F+g+g+F+F+F+F+F+F+F+F+F+F+F+F+F+m+i+m+i+q+q+q+q+F+F+F+m+m+F+F+F+F+E+v+h+D+o+",
"o+h+h+z+z+m+q+q+q+q+q+q+q+q+q+q+q+q+q+q+q+n+n+C+C+q+q+q+q+q+q+q+q+q+q+q+q+q+q+q+q+q+q+q+q+q+q+q+q+q+q+q+q+q+q+q+q+q+q+j+v+h+r+h+",
"o+l+g+s+z+j+G+p+G+G+p+o+p+p+o+l+D+l+o+o+F+q+n+C+q+q+F+r+o+l+p+o+o+o+p+o+p+p+p+p+p+o+p+o+G+o+o+G+o+p+p+p+p+p+F+p+p+p+E+j+s+h+l+h+",
"h+l+g+E+y+z+x+j+j+x+x+x+t+o+G+G+o+p+p+E+p+o+h+h+h+o+p+E+E+j+E+j+j+j+j+j+j+j+j+j+j+j+E+E+j+x+E+x+E+j+j+j+j+F+j+j+j+j+s+z+E+g+h+h+",
"g+r+h+j+z+z+F+F+D+r+F+F+F+F+F+F+l+o+E+t+E+E+j+E+j+j+p+o+p+o+g+h+h+h+h+g+g+h+g+h+h+h+F+F+F+r+F+F+F+h+D+F+F+D+g+D+F+F+j+j+E+g+h+h+",
"g+D+h+l+j+z+s+g+g+F+F+F+F+i+F+F+D+h+l+l+D+o+o+o+o+h+h+g+l+g+h+r+g+h+r+g+r+r+g+h+g+g+F+F+F+D+D+F+F+g+F+g+g+g+h+h+g+o+s+s+o+h+g+h+",
"g+r+r+g+j+z+z+G+D+F+g+F+F+o+D+g+h+F+F+F+D+D+r+D+F+q+F+F+r+r+g+g+r+g+r+g+g+h+g+g+F+g+g+F+F+r+g+F+F+F+h+F+r+g+r+h+p+s+v+E+h+g+F+g+",
"F+F+D+h+g+G+z+z+G+D+F+g+h+D+h+o+F+F+F+F+F+F+F+i+q+F+h+h+g+g+r+r+r+h+h+g+g+g+F+F+F+h+g+h+F+o+F+F+F+F+F+F+h+g+r+j+v+z+E+h+h+g+F+F+",
"D+D+h+h+g+g+E+B+z+s+g+h+g+D+F+F+F+F+F+F+F+g+i+g+F+g+g+g+g+h+h+g+h+h+h+h+F+F+F+F+F+g+g+g+h+h+F+h+F+g+F+F+F+l+s+z+z+p+h+o+g+g+F+D+",
"F+F+g+g+g+g+h+j+B+z+z+z+z+z+z+z+z+z+z+z+z+z+z+z+z+z+z+z+z+z+z+z+z+z+z+z+z+z+z+z+z+z+z+z+z+z+z+z+z+z+z+z+z+s+v+A+p+h+g+h+g+h+g+F+",
"F+F+g+F+h+g+g+h+o+o+v+s+v+z+z+z+z+z+z+z+z+z+z+z+z+z+z+z+z+z+z+z+z+z+z+z+z+z+z+z+z+z+z+z+z+z+z+z+z+z+z+s+s+j+G+o+o+g+g+g+h+g+F+F+",
"h+g+g+h+g+h+g+g+F+h+h+g+h+h+h+g+h+h+g+h+h+h+h+h+h+g+g+h+h+h+h+g+g+h+h+g+g+g+h+h+g+r+D+g+g+m+m+F+F+D+g+g+g+D+g+g+h+g+h+h+h+h+h+g+",
"h+D+g+g+g+h+h+g+g+o+l+F+o+F+h+h+h+h+o+h+h+h+o+o+g+o+o+h+h+g+g+g+h+h+h+o+o+h+o+o+h+o+g+r+g+F+g+h+h+h+g+g+F+g+g+h+o+h+h+g+h+g+g+g+",
"g+g+g+g+g+g+g+g+g+h+h+h+h+g+F+g+h+h+h+o+o+o+o+h+g+h+h+h+o+o+h+g+g+h+o+o+o+o+o+o+o+h+h+g+g+g+h+h+o+g+g+g+m+g+h+g+g+g+g+h+g+g+g+g+"};
