/* XPM */
static char * wall_xpm[] = {
"64 64 256 2",
"  	c #000000",
". 	c #0000FF",
"+ 	c #00FF00",
"@ 	c #FF0000",
"# 	c #00FFFF",
"$ 	c #FFFF00",
"% 	c #FF00FF",
"& 	c #FFFFFF",
"* 	c #7B7B7B",
"= 	c #7B7B7B",
"- 	c #7B7B7B",
"; 	c #7B7B7B",
"> 	c #7B7B7B",
", 	c #7B7B7B",
"' 	c #7B7B7B",
") 	c #7B7B7B",
"! 	c #7B7B7B",
"~ 	c #7B7B7B",
"{ 	c #7B7B7B",
"] 	c #7B7B7B",
"^ 	c #7B7B7B",
"/ 	c #7B7B7B",
"( 	c #7B7B7B",
"_ 	c #7B7B7B",
": 	c #7B7B7B",
"< 	c #7B7B7B",
"[ 	c #7B7B7B",
"} 	c #7B7B7B",
"| 	c #7B7B7B",
"1 	c #7B7B7B",
"2 	c #7B7B7B",
"3 	c #7B7B7B",
"4 	c #7B7B7B",
"5 	c #7B7B7B",
"6 	c #7B7B7B",
"7 	c #7B7B7B",
"8 	c #7B7B7B",
"9 	c #7B7B7B",
"0 	c #7B7B7B",
"a 	c #7B7B7B",
"b 	c #7B7B7B",
"c 	c #7B7B7B",
"d 	c #7B7B7B",
"e 	c #7B7B7B",
"f 	c #7B7B7B",
"g 	c #7B7B7B",
"h 	c #7B7B7B",
"i 	c #7B7B7B",
"j 	c #7B7B7B",
"k 	c #7B7B7B",
"l 	c #7B7B7B",
"m 	c #7B7B7B",
"n 	c #7B7B7B",
"o 	c #7B7B7B",
"p 	c #7B7B7B",
"q 	c #7B7B7B",
"r 	c #7B7B7B",
"s 	c #7B7B7B",
"t 	c #7B7B7B",
"u 	c #7B7B7B",
"v 	c #7B7B7B",
"w 	c #7B7B7B",
"x 	c #7B7B7B",
"y 	c #7B7B7B",
"z 	c #7B7B7B",
"A 	c #7B7B7B",
"B 	c #7B7B7B",
"C 	c #7B7B7B",
"D 	c #7B7B7B",
"E 	c #7B7B7B",
"F 	c #7B7B7B",
"G 	c #7B7B7B",
"H 	c #7B7B7B",
"I 	c #7B7B7B",
"J 	c #7B7B7B",
"K 	c #7B7B7B",
"L 	c #7B7B7B",
"M 	c #7B7B7B",
"N 	c #7B7B7B",
"O 	c #7B7B7B",
"P 	c #7B7B7B",
"Q 	c #7B7B7B",
"R 	c #7B7B7B",
"S 	c #7B7B7B",
"T 	c #7B7B7B",
"U 	c #7B7B7B",
"V 	c #7B7B7B",
"W 	c #7B7B7B",
"X 	c #7B7B7B",
"Y 	c #7B7B7B",
"Z 	c #7B7B7B",
"` 	c #7B7B7B",
" .	c #7B7B7B",
"..	c #7B7B7B",
"+.	c #7B7B7B",
"@.	c #7B7B7B",
"#.	c #7B7B7B",
"$.	c #7B7B7B",
"%.	c #7B7B7B",
"&.	c #7B7B7B",
"*.	c #7B7B7B",
"=.	c #7B7B7B",
"-.	c #7B7B7B",
";.	c #7B7B7B",
">.	c #7B7B7B",
",.	c #7B7B7B",
"'.	c #7B7B7B",
").	c #7B7B7B",
"!.	c #7B7B7B",
"~.	c #7B7B7B",
"{.	c #7B7B7B",
"].	c #7B7B7B",
"^.	c #7B7B7B",
"/.	c #7B7B7B",
"(.	c #7B7B7B",
"_.	c #7B7B7B",
":.	c #7B7B7B",
"<.	c #7B7B7B",
"[.	c #7B7B7B",
"}.	c #7B7B7B",
"|.	c #7B7B7B",
"1.	c #7B7B7B",
"2.	c #7B7B7B",
"3.	c #7B7B7B",
"4.	c #7B7B7B",
"5.	c #7B7B7B",
"6.	c #7B7B7B",
"7.	c #7B7B7B",
"8.	c #7B7B7B",
"9.	c #7B7B7B",
"0.	c #7B7B7B",
"a.	c #7B7B7B",
"b.	c #7B7B7B",
"c.	c #7B7B7B",
"d.	c #7B7B7B",
"e.	c #7B7B7B",
"f.	c #7B7B7B",
"g.	c #7B7B7B",
"h.	c #7B7B7B",
"i.	c #7B7B7B",
"j.	c #7B7B7B",
"k.	c #7B7B7B",
"l.	c #7B7B7B",
"m.	c #7B7B7B",
"n.	c #7B7B7B",
"o.	c #7B7B7B",
"p.	c #7B7B7B",
"q.	c #7B7B7B",
"r.	c #7B7B7B",
"s.	c #7B7B7B",
"t.	c #7B7B7B",
"u.	c #7B7B7B",
"v.	c #7B7B7B",
"w.	c #7B7B7B",
"x.	c #7B7B7B",
"y.	c #7B7B7B",
"z.	c #7B7B7B",
"A.	c #7B7B7B",
"B.	c #7B7B7B",
"C.	c #7B7B7B",
"D.	c #7B7B7B",
"E.	c #7B7B7B",
"F.	c #7B7B7B",
"G.	c #7B7B7B",
"H.	c #7B7B7B",
"I.	c #7B7B7B",
"J.	c #7B7B7B",
"K.	c #7B7B7B",
"L.	c #7B7B7B",
"M.	c #7B7B7B",
"N.	c #7B7B7B",
"O.	c #7B7B7B",
"P.	c #7B7B7B",
"Q.	c #7B7B7B",
"R.	c #7B7B7B",
"S.	c #7B7B7B",
"T.	c #7B7B7B",
"U.	c #7B7B7B",
"V.	c #7B7B7B",
"W.	c #7B7B7B",
"X.	c #7B7B7B",
"Y.	c #7B7B7B",
"Z.	c #7B7B7B",
"`.	c #7B7B7B",
" +	c #7B7B7B",
".+	c #7B7B7B",
"++	c #7B7B7B",
"@+	c #7B7B7B",
"#+	c #7B7B7B",
"$+	c #7B7B7B",
"%+	c #7B7B7B",
"&+	c #7B7B7B",
"*+	c #7B7B7B",
"=+	c #7B7B7B",
"-+	c #7B7B7B",
";+	c #7B7B7B",
">+	c #7B7B7B",
",+	c #7B7B7B",
"'+	c #7B7B7B",
")+	c #7B7B7B",
"!+	c #7B7B7B",
"~+	c #7B7B7B",
"{+	c #7B7B7B",
"]+	c #7B7B7B",
"^+	c #7B7B7B",
"/+	c #7B7B7B",
"(+	c #7B7B7B",
"_+	c #7B7B7B",
":+	c #7B7B7B",
"<+	c #7B7B7B",
"[+	c #7B7B7B",
"}+	c #7B7B7B",
"|+	c #7B7B7B",
"1+	c #7B7B7B",
"2+	c #7B7B7B",
"3+	c #7B7B7B",
"4+	c #7B7B7B",
"5+	c #7B7B7B",
"6+	c #7B7B7B",
"7+	c #7B7B7B",
"8+	c #7B7B7B",
"9+	c #7B7B7B",
"0+	c #7B7B7B",
"a+	c #7B7B7B",
"b+	c #7B7B7B",
"c+	c #7B7B7B",
"d+	c #7B7B7B",
"e+	c #7B7B7B",
"f+	c #7B7B7B",
"g+	c #7B7B7B",
"h+	c #7B7B7B",
"i+	c #7B7B7B",
"j+	c #7B7B7B",
"k+	c #7B7B7B",
"l+	c #7B7B7B",
"m+	c #7B7B7B",
"n+	c #7B7B7B",
"o+	c #7B7B7B",
"p+	c #394129",
"q+	c #737B73",
"r+	c #736A52",
"s+	c #203120",
"t+	c #182918",
"u+	c #5A6252",
"v+	c #525A52",
"w+	c #525239",
"x+	c #626A62",
"y+	c #4A5241",
"z+	c #6A624A",
"A+	c #525A41",
"B+	c #73736A",
"C+	c #414A39",
"D+	c #7B735A",
"E+	c #313929",
"F+	c #393929",
"G+	c #838B7B",
"s+s+p+E+E+p+p+p+p+p+p+E+p+t+E+E+E+E+p+E+E+E+E+E+E+p+s+p+p+p+p+p+p+p+p+p+E+C+t+E+E+E+E+E+E+E+E+E+E+E+p+s+p+E+E+p+p+p+p+p+p+E+p+t+",
"p+u+u+x+x+u+u+x+x+u+u+u+x+E+w+v+v+v+v+v+v+v+v+v+v+x+p+u+u+u+v+u+u+u+u+u+u+x+v+x+x+B+x+x+B+B+G+q+B+x+q+v+G+G+x+B+x+x+B+x+u+z+r+D+",
"E+v+u+u+v+v+u+u+v+v+y+y+u+s+v+v+v+v+A+w+w+v+y+A+w+v+E+A+w+A+A+v+v+A+A+A+v+B+p+u+v+v+v+v+u+x+x+x+x+u+B+y+x+x+u+u+v+v+v+v+A+A+A+r+",
"E+u+u+u+u+v+v+v+v+v+y+w+u+E+v+v+v+v+y+w+w+v+v+v+A+v+E+A+A+A+A+A+y+A+A+A+y+v+p+u+v+v+v+v+u+u+B+x+x+u+x+C+x+B+x+u+u+u+v+v+v+A+A+u+",
"p+u+u+u+u+v+v+v+v+u+v+A+u+E+v+v+v+v+y+w+w+v+v+v+p+A+E+y+A+A+A+A+A+A+A+A+A+u+C+v+v+v+v+v+v+u+x+x+u+u+x+C+u+x+u+u+u+u+v+v+v+v+v+u+",
"p+u+u+u+u+u+u+u+v+u+v+y+x+E+w+w+v+v+A+w+A+w+w+A+C+A+E+v+v+A+A+A+A+A+A+A+A+u+C+u+v+v+v+v+v+z+x+x+x+u+x+p+u+x+u+u+u+u+u+u+v+v+v+x+",
"p+u+u+u+u+u+u+u+r+u+u+v+u+s+w+w+A+A+A+A+w+A+w+w+w+v+E+u+u+A+A+A+v+v+v+v+A+u+C+u+u+u+u+u+v+u+u+x+x+u+x+p+u+x+x+u+u+u+u+u+u+u+u+x+",
"p+x+x+u+u+u+u+x+x+u+u+v+u+s+w+w+w+A+A+w+A+A+A+w+w+v+E+u+u+A+A+A+v+v+v+v+A+u+C+u+u+u+u+u+v+u+u+x+x+u+x+p+u+x+x+u+u+u+u+u+u+u+u+x+",
"p+x+x+x+x+u+x+x+x+x+u+v+u+s+w+A+w+A+A+w+w+w+w+w+w+A+E+u+v+A+A+v+v+v+v+v+y+u+C+u+u+u+u+u+z+u+x+x+u+u+B+p+v+u+u+u+u+u+u+x+x+x+u+B+",
"E+x+x+x+u+x+x+x+x+x+v+v+u+s+p+w+w+w+w+A+w+A+A+w+C+A+E+y+A+A+A+v+u+v+v+v+v+u+C+u+u+u+v+v+u+u+B+u+x+v+B+p+v+v+v+u+v+v+v+v+u+u+u+q+",
"p+x+u+u+u+u+x+x+x+x+v+v+x+s+w+A+w+w+A+A+w+A+A+A+p+A+E+w+w+A+v+u+x+u+v+v+v+u+p+u+u+x+u+u+u+u+B+x+u+v+B+p+v+v+v+v+v+v+v+v+v+u+u+B+",
"p+u+u+u+u+u+x+x+x+u+v+v+x+s+w+A+A+A+u+v+w+A+A+w+y+v+F+A+w+A+v+u+u+v+y+A+y+u+C+u+u+x+x+x+u+u+x+x+x+u+x+C+u+v+v+v+v+v+v+v+v+u+v+B+",
"p+u+u+u+u+u+r+u+u+u+u+u+B+E+w+A+w+v+u+A+w+y+y+A+y+y+E+w+w+v+v+v+v+A+A+A+A+u+p+u+u+u+u+u+u+x+x+x+u+u+B+C+v+v+v+v+v+v+v+v+v+v+v+B+",
"C+v+u+u+u+u+x+u+u+u+u+u+x+E+A+y+y+A+A+w+w+y+A+A+w+A+E+A+A+v+v+y+A+A+y+v+A+u+C+u+u+u+x+x+x+x+x+x+x+x+B+p+v+v+v+v+v+v+v+v+v+v+u+B+",
"p+u+z+u+u+x+x+u+u+v+u+u+x+s+v+v+A+A+w+w+w+w+w+w+w+y+F+w+A+v+v+A+A+A+v+v+v+u+C+u+u+u+x+x+B+B+B+B+x+x+x+p+v+v+v+v+v+v+v+v+v+u+u+x+",
"p+u+u+u+x+x+x+u+u+u+u+u+x+s+y+A+v+w+w+w+w+w+w+w+p+v+p+y+y+v+v+y+A+A+v+v+A+u+w+u+u+u+x+x+B+B+B+B+B+x+x+E+v+v+A+A+A+A+v+v+v+u+u+x+",
"p+u+u+r+u+x+x+u+z+u+u+x+q+s+A+A+A+w+w+w+w+w+w+p+w+v+F+y+v+v+v+A+A+A+A+A+A+u+w+u+u+u+x+x+x+B+B+B+q+x+x+E+v+v+A+A+A+A+v+v+u+u+u+D+",
"p+u+u+r+r+u+u+r+u+v+r+x+q+s+A+A+w+w+w+A+w+w+w+w+w+A+E+v+v+v+y+v+A+A+y+v+u+x+C+u+u+u+u+u+u+x+x+q+B+q+q+p+u+u+v+w+A+A+v+v+v+u+u+x+",
"w+u+u+v+v+v+u+v+v+v+x+x+q+E+y+w+w+v+v+v+v+w+w+w+p+u+E+A+v+v+v+v+v+v+v+v+u+q+p+u+u+u+v+v+u+u+x+B+q+G+G+p+u+x+v+y+v+v+v+v+v+u+z+D+",
"w+v+v+v+v+v+v+v+v+v+u+x+q+E+w+A+A+v+v+v+v+v+A+w+v+v+E+A+v+v+v+v+v+v+v+v+u+x+p+u+v+u+u+u+u+u+u+x+B+B+q+p+v+u+v+v+v+v+v+v+v+v+u+D+",
"w+u+v+v+v+v+v+v+v+v+u+u+x+E+p+A+A+A+y+y+y+y+y+v+v+v+E+A+A+v+v+v+v+v+v+v+u+x+p+u+u+u+v+v+v+v+u+x+B+x+q+p+v+u+v+v+v+v+v+v+v+v+u+D+",
"s+p+p+E+E+p+p+E+E+F+p+p+A+s+E+p+E+E+F+E+F+F+F+p+E+E+s+E+F+p+p+E+E+p+p+E+E+w+E+p+C+p+p+p+p+p+C+y+v+v+v+E+p+p+p+p+p+p+p+p+p+p+p+A+",
"w+u+u+u+u+u+u+u+u+u+u+u+B+p+x+u+u+u+u+u+u+x+x+B+x+q+w+B+B+B+x+B+x+B+B+r+v+u+E+v+v+v+v+v+v+v+v+u+u+u+x+E+v+v+v+v+v+v+u+v+v+u+z+B+",
"E+v+v+v+v+v+v+v+v+v+v+v+u+E+v+v+v+v+v+v+v+u+u+v+v+x+E+v+v+v+z+v+v+u+v+v+w+u+E+w+w+A+y+y+A+w+w+A+w+w+r+E+A+y+A+A+w+w+w+A+w+A+v+r+",
"p+y+y+v+v+v+v+v+u+v+v+v+x+E+u+z+v+v+v+y+v+u+u+v+u+B+E+v+v+u+u+v+v+v+v+y+A+v+F+A+w+w+w+p+w+w+v+v+A+A+u+E+y+v+A+y+y+y+v+w+v+v+v+x+",
"p+v+v+v+v+v+u+u+u+u+v+v+x+p+r+z+v+v+v+v+v+u+u+u+u+q+E+v+v+u+v+v+v+v+v+A+A+v+E+w+A+w+A+A+v+A+y+y+A+y+u+E+A+y+u+v+v+v+v+y+v+v+v+x+",
"p+v+v+v+u+x+u+x+u+u+v+v+x+p+v+y+v+v+v+u+u+u+u+u+u+q+p+u+v+v+v+v+v+v+A+A+w+v+E+w+w+A+A+A+v+A+A+A+w+y+u+E+y+v+r+u+v+v+v+y+v+v+v+x+",
"E+v+v+u+u+x+x+x+u+v+v+v+x+E+u+v+u+u+u+u+u+u+u+u+u+x+E+v+v+v+v+v+v+v+A+v+w+y+E+w+w+w+A+A+A+y+w+y+y+v+u+F+v+v+v+v+v+v+v+v+y+y+v+r+",
"E+v+v+v+u+u+u+u+u+v+v+v+x+E+v+v+v+v+v+v+v+v+v+u+u+x+E+v+v+v+v+v+v+v+y+v+A+y+E+w+w+w+w+w+v+A+A+v+v+v+x+F+v+v+v+v+v+v+v+v+y+y+v+u+",
"E+v+v+v+u+u+u+u+u+u+v+x+B+E+v+u+r+u+u+u+u+v+v+v+v+u+E+v+y+A+v+v+y+w+w+y+y+v+E+w+v+w+y+y+v+v+v+v+v+v+x+E+v+v+v+v+v+v+v+v+v+v+v+u+",
"E+v+v+v+u+u+u+x+x+u+u+u+B+E+u+u+u+u+u+u+u+v+v+v+v+u+E+y+A+y+y+A+v+y+A+A+y+v+E+w+y+v+v+v+v+x+u+v+v+v+x+E+v+v+v+v+v+v+v+v+v+v+v+u+",
"E+v+v+v+u+u+u+u+u+u+u+u+B+E+u+u+u+u+u+u+u+v+v+v+v+u+E+y+A+y+y+A+v+y+A+A+y+v+E+w+y+v+v+v+v+x+u+v+v+v+x+E+v+v+v+v+v+v+v+v+v+v+v+u+",
"E+v+v+v+u+u+u+x+x+u+u+u+x+p+u+u+u+u+u+x+x+u+u+u+v+u+E+w+A+v+y+A+A+A+A+v+u+v+E+w+w+v+u+u+v+u+v+v+v+v+x+E+v+v+v+v+v+v+v+v+v+v+v+u+",
"E+v+v+v+u+u+u+x+x+u+u+u+x+p+u+u+u+u+x+q+x+u+u+v+y+u+E+A+A+p+p+w+A+A+A+y+y+v+E+w+w+v+v+v+v+v+v+v+v+u+x+E+y+v+v+v+v+v+v+v+v+v+v+u+",
"E+v+v+u+u+u+u+u+u+u+u+u+x+p+u+u+u+u+x+x+x+u+u+v+v+u+F+A+A+p+w+A+w+A+y+v+v+v+E+A+w+v+v+v+v+v+v+v+v+u+x+E+A+y+v+u+u+u+v+v+v+v+A+z+",
"E+v+v+u+u+u+u+u+u+u+u+v+x+E+v+u+u+r+x+x+u+v+v+v+v+x+E+A+A+w+w+w+A+A+v+v+v+v+E+w+A+w+v+v+v+v+v+v+v+v+u+E+w+w+v+u+u+u+v+y+A+A+w+v+",
"p+v+v+u+u+u+u+u+u+u+u+v+u+F+v+v+v+v+r+u+r+u+u+u+v+x+E+w+A+A+w+w+A+w+w+A+A+v+F+w+w+w+w+w+w+v+v+v+v+v+u+E+A+A+A+y+y+y+A+w+A+A+A+v+",
"p+v+u+u+u+u+u+v+v+v+v+v+u+E+v+u+u+v+u+u+r+u+u+v+v+B+E+v+A+w+w+w+A+A+A+w+A+v+E+A+w+w+A+A+A+v+v+v+v+v+x+E+w+w+A+A+A+A+w+w+A+A+w+v+",
"E+v+u+u+u+u+u+v+v+v+v+v+u+E+v+v+v+v+v+z+r+v+v+v+v+B+p+v+A+w+w+w+w+A+A+p+A+v+E+w+w+w+A+A+v+x+r+v+u+v+x+E+A+A+u+v+A+A+w+w+A+w+A+v+",
"p+u+u+u+x+u+u+v+v+v+v+v+u+E+v+v+v+v+u+u+u+u+u+v+v+q+C+x+u+v+A+y+w+A+A+w+A+v+E+w+w+w+w+w+y+x+u+u+u+v+B+E+A+A+u+v+A+A+A+A+v+A+w+v+",
"E+u+u+u+u+u+u+v+v+u+v+v+x+E+v+v+v+v+u+u+u+u+u+u+u+x+E+u+v+v+v+v+v+w+A+A+A+v+E+A+w+w+w+w+v+v+u+u+u+u+x+E+A+A+v+A+w+w+A+A+w+w+A+v+",
"p+u+u+u+u+u+u+v+v+u+v+u+B+E+v+v+v+v+v+v+v+u+u+v+v+x+p+v+v+v+v+v+v+A+A+A+A+v+E+w+w+w+A+A+r+v+u+u+u+u+x+F+y+y+A+w+w+w+y+v+A+w+w+v+",
"s+p+p+p+p+p+p+p+p+p+p+p+v+E+p+E+E+E+E+E+p+p+p+p+p+w+s+E+F+F+E+E+F+F+E+E+F+p+s+E+E+E+E+E+w+E+E+C+p+p+w+E+E+p+E+s+E+E+E+F+E+E+F+E+",
"w+q+x+B+x+q+x+B+x+x+B+B+G+y+u+u+u+x+u+u+r+u+u+u+u+x+A+x+u+x+x+x+x+x+x+B+B+q+p+u+x+x+q+q+B+B+B+B+q+B+x+w+x+x+u+x+x+x+x+x+x+x+x+q+",
"E+z+v+v+v+z+v+v+v+v+v+v+x+F+v+v+v+v+v+v+u+u+u+v+w+v+p+v+v+v+v+v+v+v+v+v+v+x+E+v+v+u+u+u+u+u+u+u+x+x+u+F+u+u+u+u+u+u+u+u+u+u+u+x+",
"p+v+v+v+v+A+w+w+v+y+A+v+x+F+v+v+v+v+v+y+y+y+y+A+w+v+E+v+v+v+v+v+y+v+v+v+v+B+E+v+A+y+u+v+v+v+v+v+v+v+u+p+u+u+u+u+u+u+u+u+u+u+u+q+",
"p+v+v+v+v+y+w+w+v+v+v+v+x+F+v+v+v+v+A+A+A+A+A+A+A+v+E+v+v+v+A+A+v+v+v+v+v+B+E+v+y+A+v+v+v+v+v+v+v+u+u+w+u+x+u+u+u+u+u+u+u+u+u+q+",
"p+v+v+v+v+y+w+w+v+v+v+v+x+F+v+v+v+v+A+A+A+A+A+A+A+v+E+v+v+v+A+A+v+v+v+v+v+B+E+u+v+A+v+v+v+v+y+v+v+u+u+w+u+x+u+u+u+u+u+u+u+u+u+q+",
"E+w+w+v+v+A+w+A+w+w+A+v+x+p+v+v+A+A+A+A+v+y+y+A+A+v+E+v+v+v+v+A+A+v+v+v+v+x+E+u+v+y+v+v+v+y+v+v+u+x+B+w+u+x+u+v+u+u+u+u+u+x+x+q+",
"p+w+w+A+A+A+A+w+A+w+w+y+r+E+y+v+v+A+A+A+y+A+A+A+A+v+E+v+v+v+v+A+v+v+v+v+v+x+E+v+v+v+v+v+v+v+y+u+u+x+x+C+x+r+u+v+u+u+u+u+u+x+B+q+",
"p+w+w+w+A+A+w+A+A+A+w+A+u+F+y+y+y+w+p+p+p+A+A+A+A+v+p+v+v+v+v+A+v+v+v+v+v+x+p+v+v+v+y+v+v+v+A+v+x+u+x+p+u+u+u+u+u+u+r+u+x+x+B+q+",
"p+w+A+w+A+A+w+w+w+w+w+A+u+F+A+y+y+p+p+w+w+A+A+A+A+v+E+v+v+v+v+y+v+v+v+v+v+u+E+y+y+w+w+v+v+v+A+v+u+u+B+p+u+u+u+u+r+r+u+u+u+x+B+q+",
"E+p+w+w+w+w+A+w+A+A+w+v+u+E+v+v+y+y+y+w+w+A+A+A+A+v+E+v+v+v+v+A+w+y+v+v+v+x+E+w+w+A+A+y+y+A+A+v+v+v+B+p+u+u+u+u+u+u+u+u+u+x+x+q+",
"E+w+A+w+w+A+A+w+A+A+A+y+x+E+A+A+A+w+w+C+A+A+A+A+A+v+E+v+v+v+A+A+A+y+u+v+v+u+E+A+w+A+A+v+A+A+A+v+v+v+q+w+u+x+x+x+x+x+x+x+x+x+x+q+",
"F+w+A+A+A+u+v+w+A+A+w+y+x+p+A+A+A+v+w+p+A+w+w+A+y+u+E+y+A+A+A+A+A+y+v+v+v+x+F+A+A+A+A+v+u+v+v+v+v+v+q+w+x+x+u+u+x+x+x+x+x+x+x+q+",
"F+w+A+w+v+u+A+w+y+y+A+v+u+E+y+A+A+v+v+A+A+A+A+A+A+u+E+A+A+w+w+u+u+v+v+v+u+B+E+w+A+A+A+v+x+u+v+v+v+v+x+w+q+x+x+u+x+x+x+x+x+B+B+G+",
"p+A+y+y+A+A+w+w+y+A+A+A+v+F+A+A+y+v+v+A+A+A+A+A+w+u+E+y+A+A+A+u+u+v+v+u+u+B+E+A+v+y+A+y+v+v+v+v+v+v+x+p+B+x+B+u+u+u+x+x+u+B+B+G+",
"p+v+v+A+A+w+w+w+w+w+w+A+v+E+y+y+v+v+y+A+A+A+A+A+A+u+E+y+y+A+A+A+v+v+v+v+u+B+E+v+u+u+A+w+y+y+v+v+v+v+x+p+B+x+B+q+x+x+x+B+x+x+q+G+",
"E+y+A+v+w+w+w+w+w+w+w+A+v+E+v+v+y+A+A+A+A+w+w+w+A+u+E+v+v+v+v+v+v+v+v+v+v+B+E+v+v+u+A+w+v+v+v+A+A+y+x+p+B+B+q+B+x+x+q+B+q+B+B+q+",
"F+A+A+A+w+w+w+w+w+w+p+A+u+F+A+A+A+A+A+w+w+w+w+w+w+u+E+v+v+v+v+u+u+u+v+v+v+x+E+v+v+v+y+A+v+u+v+v+A+y+u+p+B+B+x+x+x+x+x+x+B+q+B+q+",
"E+A+A+w+w+w+A+w+w+w+w+v+u+E+y+A+A+A+w+w+w+w+w+y+y+u+E+u+u+u+u+u+u+u+z+u+v+x+E+u+v+v+v+v+A+A+A+y+A+y+u+p+x+x+x+x+x+x+x+x+x+x+B+q+",
"E+y+w+w+v+v+v+v+w+w+w+A+u+F+A+A+A+A+A+w+w+w+w+w+w+u+E+v+v+v+v+u+u+u+v+v+v+x+E+v+u+u+v+C+C+C+C+v+A+y+u+p+B+B+x+x+x+x+x+x+B+q+B+q+",
"F+w+A+A+v+v+v+v+v+A+w+v+u+E+y+A+A+A+w+w+w+w+w+y+y+u+E+u+u+u+u+u+u+u+z+u+v+x+E+v+v+v+v+v+v+v+y+y+A+y+u+p+x+x+x+x+x+x+x+x+x+x+B+q+",
"s+u+v+v+y+u+v+v+y+y+v+v+u+F+A+A+y+y+w+w+w+v+v+v+v+r+E+u+u+u+u+u+u+u+u+u+u+x+E+v+v+v+v+v+v+v+u+v+A+v+u+p+x+x+x+x+x+x+x+x+x+x+B+q+"};
