/* XPM */
static char * wall3_xpm[] = {
"64 64 256 2",
"  	c #000000",
". 	c #0000FF",
"+ 	c #00FF00",
"@ 	c #FF0000",
"# 	c #00FFFF",
"$ 	c #FFFF00",
"% 	c #FF00FF",
"& 	c #FFFFFF",
"* 	c #7B7B7B",
"= 	c #7B7B7B",
"- 	c #7B7B7B",
"; 	c #7B7B7B",
"> 	c #7B7B7B",
", 	c #7B7B7B",
"' 	c #7B7B7B",
") 	c #7B7B7B",
"! 	c #7B7B7B",
"~ 	c #7B7B7B",
"{ 	c #7B7B7B",
"] 	c #7B7B7B",
"^ 	c #7B7B7B",
"/ 	c #7B7B7B",
"( 	c #7B7B7B",
"_ 	c #7B7B7B",
": 	c #7B7B7B",
"< 	c #7B7B7B",
"[ 	c #7B7B7B",
"} 	c #7B7B7B",
"| 	c #7B7B7B",
"1 	c #7B7B7B",
"2 	c #7B7B7B",
"3 	c #7B7B7B",
"4 	c #7B7B7B",
"5 	c #7B7B7B",
"6 	c #7B7B7B",
"7 	c #7B7B7B",
"8 	c #7B7B7B",
"9 	c #7B7B7B",
"0 	c #7B7B7B",
"a 	c #7B7B7B",
"b 	c #7B7B7B",
"c 	c #7B7B7B",
"d 	c #7B7B7B",
"e 	c #7B7B7B",
"f 	c #7B7B7B",
"g 	c #7B7B7B",
"h 	c #7B7B7B",
"i 	c #7B7B7B",
"j 	c #7B7B7B",
"k 	c #7B7B7B",
"l 	c #7B7B7B",
"m 	c #7B7B7B",
"n 	c #7B7B7B",
"o 	c #7B7B7B",
"p 	c #7B7B7B",
"q 	c #7B7B7B",
"r 	c #7B7B7B",
"s 	c #7B7B7B",
"t 	c #7B7B7B",
"u 	c #7B7B7B",
"v 	c #7B7B7B",
"w 	c #7B7B7B",
"x 	c #7B7B7B",
"y 	c #7B7B7B",
"z 	c #7B7B7B",
"A 	c #7B7B7B",
"B 	c #7B7B7B",
"C 	c #7B7B7B",
"D 	c #7B7B7B",
"E 	c #7B7B7B",
"F 	c #7B7B7B",
"G 	c #7B7B7B",
"H 	c #7B7B7B",
"I 	c #7B7B7B",
"J 	c #7B7B7B",
"K 	c #7B7B7B",
"L 	c #7B7B7B",
"M 	c #7B7B7B",
"N 	c #7B7B7B",
"O 	c #7B7B7B",
"P 	c #7B7B7B",
"Q 	c #7B7B7B",
"R 	c #7B7B7B",
"S 	c #7B7B7B",
"T 	c #7B7B7B",
"U 	c #7B7B7B",
"V 	c #7B7B7B",
"W 	c #7B7B7B",
"X 	c #7B7B7B",
"Y 	c #7B7B7B",
"Z 	c #7B7B7B",
"` 	c #7B7B7B",
" .	c #7B7B7B",
"..	c #7B7B7B",
"+.	c #7B7B7B",
"@.	c #7B7B7B",
"#.	c #7B7B7B",
"$.	c #7B7B7B",
"%.	c #7B7B7B",
"&.	c #7B7B7B",
"*.	c #7B7B7B",
"=.	c #7B7B7B",
"-.	c #7B7B7B",
";.	c #7B7B7B",
">.	c #7B7B7B",
",.	c #7B7B7B",
"'.	c #7B7B7B",
").	c #7B7B7B",
"!.	c #7B7B7B",
"~.	c #7B7B7B",
"{.	c #7B7B7B",
"].	c #7B7B7B",
"^.	c #7B7B7B",
"/.	c #7B7B7B",
"(.	c #7B7B7B",
"_.	c #7B7B7B",
":.	c #7B7B7B",
"<.	c #7B7B7B",
"[.	c #7B7B7B",
"}.	c #7B7B7B",
"|.	c #7B7B7B",
"1.	c #7B7B7B",
"2.	c #7B7B7B",
"3.	c #7B7B7B",
"4.	c #7B7B7B",
"5.	c #7B7B7B",
"6.	c #7B7B7B",
"7.	c #7B7B7B",
"8.	c #7B7B7B",
"9.	c #7B7B7B",
"0.	c #7B7B7B",
"a.	c #7B7B7B",
"b.	c #7B7B7B",
"c.	c #7B7B7B",
"d.	c #7B7B7B",
"e.	c #7B7B7B",
"f.	c #7B7B7B",
"g.	c #7B7B7B",
"h.	c #7B7B7B",
"i.	c #7B7B7B",
"j.	c #7B7B7B",
"k.	c #7B7B7B",
"l.	c #7B7B7B",
"m.	c #7B7B7B",
"n.	c #7B7B7B",
"o.	c #7B7B7B",
"p.	c #7B7B7B",
"q.	c #7B7B7B",
"r.	c #7B7B7B",
"s.	c #7B7B7B",
"t.	c #7B7B7B",
"u.	c #7B7B7B",
"v.	c #7B7B7B",
"w.	c #7B7B7B",
"x.	c #7B7B7B",
"y.	c #7B7B7B",
"z.	c #7B7B7B",
"A.	c #7B7B7B",
"B.	c #7B7B7B",
"C.	c #7B7B7B",
"D.	c #7B7B7B",
"E.	c #7B7B7B",
"F.	c #7B7B7B",
"G.	c #7B7B7B",
"H.	c #7B7B7B",
"I.	c #7B7B7B",
"J.	c #7B7B7B",
"K.	c #7B7B7B",
"L.	c #7B7B7B",
"M.	c #7B7B7B",
"N.	c #7B7B7B",
"O.	c #7B7B7B",
"P.	c #7B7B7B",
"Q.	c #7B7B7B",
"R.	c #7B7B7B",
"S.	c #7B7B7B",
"T.	c #7B7B7B",
"U.	c #7B7B7B",
"V.	c #7B7B7B",
"W.	c #7B7B7B",
"X.	c #7B7B7B",
"Y.	c #7B7B7B",
"Z.	c #7B7B7B",
"`.	c #7B7B7B",
" +	c #7B7B7B",
".+	c #7B7B7B",
"++	c #7B7B7B",
"@+	c #7B7B7B",
"#+	c #7B7B7B",
"$+	c #7B7B7B",
"%+	c #7B7B7B",
"&+	c #7B7B7B",
"*+	c #7B7B7B",
"=+	c #7B7B7B",
"-+	c #7B7B7B",
";+	c #7B7B7B",
">+	c #7B7B7B",
",+	c #7B7B7B",
"'+	c #7B7B7B",
")+	c #7B7B7B",
"!+	c #7B7B7B",
"~+	c #7B7B7B",
"{+	c #7B7B7B",
"]+	c #7B7B7B",
"^+	c #7B7B7B",
"/+	c #7B7B7B",
"(+	c #7B7B7B",
"_+	c #7B7B7B",
":+	c #7B7B7B",
"<+	c #7B7B7B",
"[+	c #7B7B7B",
"}+	c #7B7B7B",
"|+	c #7B7B7B",
"1+	c #7B7B7B",
"2+	c #7B7B7B",
"3+	c #7B7B7B",
"4+	c #7B7B7B",
"5+	c #7B7B7B",
"6+	c #7B7B7B",
"7+	c #7B735A",
"8+	c #A4AC9C",
"9+	c #9C9C7B",
"0+	c #949C94",
"a+	c #BDC5B4",
"b+	c #949473",
"c+	c #BDAC8B",
"d+	c #8B836A",
"e+	c #ACB4A4",
"f+	c #9CA494",
"g+	c #ACB4AC",
"h+	c #001000",
"i+	c #394131",
"j+	c #525A52",
"k+	c #182918",
"l+	c #414A31",
"m+	c #081800",
"n+	c #313920",
"o+	c #73736A",
"p+	c #203120",
"q+	c #5A6241",
"r+	c #8B9483",
"s+	c #5A6252",
"t+	c #414A39",
"u+	c #4A4A39",
"v+	c #202918",
"w+	c #293120",
"x+	c #737B73",
"y+	c #626A62",
"z+	c #101808",
"A+	c #525239",
"B+	c #4A5241",
"C+	c #837B62",
"D+	c #292918",
"E+	c #949C8B",
"F+	c #736A52",
"G+	c #83837B",
"t+B+t+i+i+i+t+i+i+i+t+t+t+i+i+i+i+i+i+i+i+i+i+i+i+i+i+i+t+i+t+t+i+t+i+i+i+t+i+i+i+i+t+i+i+i+i+i+i+i+i+t+t+t+t+t+t+t+i+i+i+t+B+t+",
"i+i+i+i+i+t+t+i+t+t+i+i+t+i+t+i+i+i+i+i+t+i+t+i+i+i+t+B+t+B+t+t+t+B+t+t+B+t+t+B+t+t+t+t+i+t+t+i+i+t+i+t+i+i+t+i+i+i+i+t+i+i+t+i+",
"i+i+i+i+i+i+i+i+t+B+t+t+i+i+i+i+i+i+i+i+i+t+t+t+i+i+i+t+B+t+B+j+B+j+j+B+B+B+B+t+B+t+t+i+i+i+i+i+i+i+i+i+t+t+B+t+i+i+i+i+i+t+i+i+",
"i+i+i+i+i+t+i+i+i+i+k+k+p+k+k+p+k+k+k+k+k+k+k+k+p+k+k+k+k+k+k+p+k+p+k+p+k+k+k+k+k+k+k+k+p+p+k+p+p+p+k+k+k+k+p+v+p+w+t+i+i+i+i+t+",
"i+i+i+i+t+i+i+p+k+k+k+k+p+k+p+k+k+k+k+k+k+k+k+p+k+k+k+p+k+k+p+p+B+G+G+y+B+i+p+p+k+k+k+k+k+k+k+k+p+k+k+k+k+k+k+k+k+w+i+t+i+i+i+i+",
"i+i+t+i+i+n+w+k+k+v+v+w+i+i+i+i+i+i+i+n+i+n+i+i+n+i+n+n+w+i+i+i+p+t+x+y+x+x+s+t+p+i+i+i+i+i+i+i+i+i+i+i+n+w+k+k+k+k+w+i+i+t+i+i+",
"i+i+i+i+i+p+k+k+v+D+i+i+n+i+i+i+i+i+i+i+i+n+i+i+n+i+n+i+v+i+i+i+n+p+t+s+x+G+f+G+s+j+w+i+i+i+i+i+i+i+i+i+i+i+w+v+v+k+k+w+i+i+i+i+",
"i+i+i+i+w+k+k+k+w+n+w+n+w+w+n+i+i+i+i+i+n+n+i+n+w+i+D+k+k+D+i+w+n+i+p+A+G+8+0+G+x+o+y+x+y+j+t+n+n+n+n+n+n+i+i+w+w+v+k+D+w+i+i+t+",
"t+i+i+i+k+z+v+w+i+w+n+n+w+i+n+i+i+i+i+i+n+n+n+n+i+i+w+k+k+v+i+w+w+i+i+l+x+r+G+o+j+A+q+s+y+y+o+y+i+i+i+n+n+n+n+i+w+w+k+v+k+i+i+t+",
"i+i+i+i+v+k+D+D+w+n+w+w+w+w+w+i+i+n+n+n+i+n+w+w+w+i+n+v+k+k+k+n+i+i+i+u+q+s+A+q+B+h+h+h+h+h+B+B+i+w+w+n+w+w+n+w+w+p+v+v+v+i+i+i+",
"t+t+i+t+w+D+p+D+k+k+D+D+D+D+D+D+D+D+D+k+D+D+v+v+v+k+k+k+z+z+D+p+D+k+i+t+t+h+h+h+h+h+h+h+h+h+h+h+p+k+p+D+v+D+k+D+p+p+k+v+D+i+i+i+",
"i+i+i+j+i+D+k+v+k+v+k+v+k+v+v+k+v+D+k+v+v+k+k+k+k+v+k+v+k+k+h+h+h+h+h+h+h+h+h+h+h+h+h+h+h+h+h+p+k+k+k+k+v+v+k+k+k+k+i+D+D+i+i+t+",
"t+i+i+o+t+i+B+A+B+B+B+B+B+B+B+t+t+B+B+B+t+B+t+t+t+t+i+w+w+D+i+h+h+h+h+h+h+h+h+h+h+h+h+h+h+h+G+o+t+B+B+t+B+B+B+B+B+B+B+s+B+i+i+t+",
"i+i+w+s+j+t+s+s+s+s+s+s+j+s+s+s+s+s+s+s+j+B+t+t+t+j+r+f+r+t+u+B+h+h+h+h+h+h+h+h+h+h+h+h+h+x+o+i+s+s+j+s+j+s+s+s+s+s+s+t+j+i+t+t+",
"i+i+i+s+j+p+i+n+i+n+i+i+w+n+w+i+i+i+i+i+w+w+i+w+y+E+0+r+x+s+i+h+h+h+h+h+h+h+h+h+h+h+h+h+h+x+s+s+i+j+j+i+i+p+i+n+i+i+p+B+s+B+i+t+",
"i+t+B+y+j+i+n+i+n+n+w+i+t+l+t+A+j+B+j+j+i+i+w+l+r+E+x+s+s+i+h+h+h+h+h+h+h+h+h+h+h+h+h+h+h+h+o+y+h+j+j+j+i+i+i+i+i+w+i+B+y+B+t+i+",
"i+i+t+s+s+p+i+i+i+w+i+i+i+u+j+y+d+x+y+j+y+y+t+o+x+s+t+t+h+h+h+h+h+h+h+h+h+h+h+h+h+h+h+h+h+h+h+h+h+h+h+o+j+i+i+i+t+i+p+s+i+t+t+i+",
"i+t+i+y+j+p+i+i+i+i+i+i+i+n+w+y+F+x+G+G+d+w+i+j+t+h+h+h+h+h+h+h+h+h+h+h+h+h+h+h+h+h+h+h+h+h+h+h+h+h+h+h+j+j+i+i+t+i+p+t+y+i+i+t+",
"i+i+i+y+s+p+i+i+n+i+i+i+i+w+p+p+t+x+r+E+B+i+h+h+h+h+h+h+h+h+h+h+h+h+h+h+h+h+h+h+h+h+h+h+h+h+h+h+h+h+l+i+v+v+i+i+i+i+p+G+s+w+i+t+",
"i+i+t+y+s+p+i+i+n+i+i+i+n+n+h+h+i+j+G+E+G+i+h+h+h+h+h+h+h+h+h+h+h+h+h+h+h+h+h+h+h+h+h+h+h+h+h+h+h+j+l+i+i+i+t+i+w+s+G+x+i+D+i+i+",
"i+t+t+y+j+p+D+p+p+p+k+k+k+h+h+h+i+i+s+E+r+j+h+h+h+h+h+h+h+h+h+h+h+h+h+h+h+h+h+h+h+h+h+h+h+h+h+h+h+h+B+l+D+p+D+p+y+G+o+i+w+i+i+i+",
"i+t+i+y+s+p+k+k+B+t+w+p+k+k+h+h+h+i+B+G+E+x+h+h+h+h+h+h+h+h+h+h+h+h+h+h+h+h+h+h+h+h+h+h+h+h+h+h+h+h+h+t+k+k+B+y+y+E+B+w+B+i+t+i+",
"t+t+t+s+j+i+B+v+i+j+o+y+s+i+i+i+h+h+i+x+s+h+h+h+h+h+h+h+h+h+h+h+h+h+h+h+h+h+h+h+h+h+h+h+h+h+h+h+h+h+h+h+h+j+G+s+y+s+v+i+j+t+t+t+",
"t+t+i+j+j+t+j+u+v+i+s+G+0+x+t+t+s+h+i+j+h+h+h+h+h+h+h+h+h+h+h+h+h+h+h+h+h+h+h+h+h+h+h+h+h+h+h+h+h+h+h+h+t+G+E+x+t+j+w+B+j+i+t+B+",
"i+t+t+j+B+i+i+i+D+w+i+x+0+E+o+y+B+h+h+h+h+h+h+h+h+h+h+h+h+h+h+h+h+h+h+h+h+h+h+h+h+h+h+h+h+h+h+h+h+h+h+h+y+r+8+G+o+B+p+B+s+t+B+t+",
"t+t+t+s+B+i+i+i+w+v+i+B+G+G+o+j+t+h+h+h+h+h+h+h+h+h+h+h+h+h+h+h+h+h+h+h+h+h+h+h+h+h+h+h+h+h+h+h+h+h+h+h+B+x+E+0+B+t+w+B+j+t+B+t+",
"i+t+i+y+B+i+i+i+w+D+i+i+y+o+j+t+h+h+h+h+h+h+h+h+h+h+h+h+h+h+h+h+h+h+h+h+h+h+h+h+h+h+h+h+h+h+h+h+h+h+h+h+B+s+G+G+B+v+D+t+j+B+t+B+",
"i+t+t+y+B+i+i+i+n+D+i+y+o+y+B+i+h+h+h+h+h+h+h+h+h+h+h+h+h+h+h+h+h+h+h+h+h+h+h+h+h+h+h+h+h+h+h+h+h+h+h+h+t+s+j+y+i+v+w+t+j+t+t+t+",
"t+t+i+j+t+i+i+i+D+w+y+E+s+t+i+h+h+h+h+h+h+h+h+h+h+h+h+h+h+h+h+h+h+h+h+h+h+h+h+h+h+h+h+h+h+h+h+h+h+h+h+h+h+B+s+x+B+D+D+B+j+B+i+t+",
"t+y+o+s+t+i+i+i+n+B+G+B+i+i+h+h+h+h+h+h+h+h+h+h+h+h+h+h+h+h+h+h+h+h+h+h+h+h+h+h+h+h+h+h+h+h+h+h+h+h+h+h+h+h+t+y+y+w+D+t+j+t+i+t+",
"i+B+s+G+F+t+i+p+p+B+s+t+i+h+h+h+h+h+h+h+h+h+h+h+h+h+h+h+h+h+h+h+h+h+h+h+h+h+h+h+h+h+h+h+h+h+h+h+h+h+h+h+h+h+h+t+y+j+n+B+y+i+t+t+",
"i+m+j+y+x+7+y+j+t+i+i+i+h+h+h+h+h+h+h+h+h+h+h+h+h+h+h+h+h+h+h+h+h+h+h+h+h+h+h+h+h+h+h+h+h+h+h+h+h+h+h+h+h+h+h+h+t+j+i+j+s+i+t+t+",
"i+z+i+y+y+x+7+o+y+t+j+h+h+h+h+h+h+h+h+h+h+h+h+h+h+h+h+h+h+h+h+h+h+h+h+h+h+h+h+h+h+h+h+h+h+h+h+h+h+h+h+h+h+h+h+h+t+i+w+s+o+i+t+i+",
"t+k+k+B+y+o+x+9+d+x+h+h+h+h+h+h+h+h+h+h+h+h+h+h+h+h+h+h+h+h+h+h+h+h+h+h+h+h+h+h+h+h+h+h+h+h+h+h+h+h+h+h+h+h+h+h+h+j+w+o+o+i+B+t+",
"i+p+k+p+j+o+E+e+c+f+h+h+h+h+h+h+h+h+h+h+h+h+h+h+h+h+h+h+h+h+h+h+h+h+h+h+h+h+h+h+h+h+h+h+h+h+h+h+h+h+h+h+h+h+s+s+s+i+i+j+o+t+B+i+",
"i+i+w+k+i+s+G+8+8+r+o+h+h+h+h+h+h+h+h+h+h+h+h+h+h+h+h+h+h+h+h+h+h+h+h+h+h+h+h+h+h+h+h+h+h+h+h+h+h+h+h+h+h+j+x+l+D+w+i+t+y+t+B+t+",
"i+i+w+k+p+i+B+x+E+G+y+h+h+h+h+h+h+h+h+h+h+h+h+h+h+h+h+h+h+h+h+h+h+h+h+h+h+h+h+h+h+h+h+h+h+h+h+h+h+h+h+h+j+x+B+n+w+i+i+t+o+B+t+t+",
"t+i+i+w+k+p+w+j+x+r+y+h+h+h+h+h+h+h+h+h+h+h+h+h+h+h+h+h+h+h+h+h+h+h+h+h+h+h+h+h+h+h+h+h+h+h+h+h+h+h+h+x+G+s+n+D+i+i+i+t+y+B+t+i+",
"i+i+B+i+i+i+p+i+G+x+y+h+h+h+h+h+h+h+h+h+h+h+h+h+h+h+h+h+h+h+h+h+h+h+h+h+h+h+h+h+h+h+h+h+h+h+h+h+h+h+y+f+r+F+v+i+i+i+i+t+o+B+t+t+",
"i+B+t+o+j+i+w+i+o+s+y+h+h+h+h+h+h+h+h+h+h+h+h+h+h+h+h+h+h+h+h+h+h+h+h+h+h+h+h+h+h+h+h+h+h+h+h+h+h+j+G+e+G+B+i+i+i+i+i+t+s+t+i+i+",
"i+B+B+o+j+i+k+y+s+B+h+h+h+h+h+h+h+h+h+h+h+h+h+h+h+h+h+h+h+h+h+h+h+h+h+h+h+h+h+h+h+h+h+h+h+h+h+h+p+i+w+y+o+p+p+p+D+D+i+t+s+t+i+i+",
"i+B+B+y+s+n+k+i+w+h+h+h+h+h+h+h+h+h+h+h+h+h+h+h+h+h+h+h+h+h+h+h+h+h+h+h+h+h+h+h+h+h+h+h+h+h+h+h+h+k+k+k+j+k+k+k+k+k+i+t+j+B+t+i+",
"t+t+B+y+s+n+t+i+t+t+t+i+t+t+s+y+h+h+h+h+h+h+h+h+h+h+h+h+h+h+h+h+h+h+h+h+h+h+h+h+h+h+h+h+h+h+h+h+h+h+i+t+t+i+i+i+t+i+i+B+j+t+B+i+",
"i+t+B+s+y+n+j+B+B+j+j+j+j+j+x+h+h+h+h+h+h+h+h+h+h+h+h+h+h+h+h+h+h+h+h+h+h+h+h+h+h+h+h+h+h+h+h+h+h+h+s+s+s+j+j+j+j+j+n+B+o+B+t+i+",
"t+i+B+s+y+i+i+i+w+w+i+i+s+s+s+h+h+h+h+h+h+h+h+h+h+h+h+h+h+h+h+h+h+h+h+h+h+h+h+h+h+h+h+h+h+h+h+h+j+j+x+l+D+i+i+i+i+i+n+B+y+t+t+t+",
"i+t+t+y+o+i+i+i+w+n+i+s+o+h+h+h+h+h+h+h+h+h+h+h+h+h+h+h+h+h+h+h+h+h+h+h+h+h+h+h+h+h+h+h+h+h+j+y+y+x+B+n+w+i+i+i+i+i+n+B+o+t+B+t+",
"i+B+t+y+y+i+i+n+n+w+j+o+j+h+h+h+h+h+h+h+h+h+h+h+h+h+h+h+h+h+h+h+h+h+h+h+h+h+h+h+h+h+h+h+h+j+o+G+0+G+o+q+i+i+i+i+i+i+i+j+o+t+B+i+",
"i+t+i+s+y+n+i+n+w+n+o+h+h+h+h+h+h+h+h+h+h+h+h+h+h+h+h+h+h+h+h+h+h+h+h+h+h+h+h+h+h+h+h+h+h+x+f+8+0+b+d+G+7+B+i+i+i+i+w+j+y+B+t+t+",
"i+t+i+x+o+i+i+n+w+j+h+h+h+h+h+h+h+h+h+h+h+h+h+h+h+h+h+h+h+h+h+h+h+h+h+h+h+h+h+h+h+h+h+h+h+y+G+e+G+y+w+w+w+v+i+i+i+i+n+j+o+t+B+i+",
"i+i+t+G+o+n+n+i+w+n+w+h+i+i+s+s+h+h+h+h+h+h+h+i+t+u+B+s+h+h+h+h+h+h+h+h+h+h+h+h+G+s+h+h+p+i+t+i+w+v+k+p+n+i+i+i+i+i+w+B+y+t+i+i+",
"t+i+i+x+o+w+D+w+D+D+D+p+D+p+w+B+h+h+h+h+l+w+t+A+s+o+y+s+s+B+B+j+h+h+h+h+h+h+G+E+o+s+h+h+h+k+k+k+k+p+p+p+p+p+p+w+w+w+w+j+o+i+i+t+",
"t+i+i+x+x+p+v+v+k+k+k+k+k+k+k+v+t+h+h+w+t+x+y+o+x+s+t+G+E+x+x+s+B+t+t+t+o+o+0+o+s+h+h+h+h+h+k+k+k+k+k+k+v+k+v+k+v+k+k+s+o+i+i+i+",
"t+l+i+y+x+s+A+B+A+A+B+t+B+B+B+B+n+v+D+s+G+E+0+0+E+8+s+n+l+x+E+G+r+y+l+i+t+o+r+G+i+j+j+t+A+t+t+A+t+B+B+B+B+B+B+B+B+B+j+s+y+i+l+i+",
"i+l+i+j+G+x+q+s+s+q+q+q+q+j+q+q+D+k+y+0+a+g+0+8+G+s+i+w+D+t+s+G+G+G+s+w+i+r+G+x+t+w+i+t+s+q+j+q+j+s+s+s+s+s+s+s+s+s+y+x+j+i+i+i+",
"i+i+i+s+x+x+n+n+i+i+w+w+n+w+n+w+k+t+o+G+f+g+e+G+j+i+p+k+k+i+w+t+j+x+x+t+w+x+y+x+s+v+w+w+n+i+n+w+w+i+i+i+i+i+i+i+n+n+s+s+j+i+i+i+",
"i+i+i+l+s+x+y+i+i+n+n+n+w+D+w+w+v+w+j+o+x+E+G+s+p+k+w+w+w+n+i+i+i+t+j+B+w+B+s+x+x+v+w+n+n+i+i+n+w+i+w+i+i+i+i+i+i+t+y+y+t+i+i+i+",
"i+i+i+i+s+x+x+A+i+w+i+n+w+u+i+i+k+v+D+u+j+j+x+t+k+D+w+w+i+i+i+i+i+i+i+D+D+D+t+t+j+s+i+n+n+i+i+w+w+w+i+w+i+i+i+i+B+y+o+j+i+i+n+i+",
"w+n+i+i+i+A+x+x+A+i+n+i+i+i+i+t+D+k+i+D+w+i+j+p+p+i+n+i+i+i+i+i+i+i+i+i+i+D+D+D+w+i+i+i+w+t+w+w+w+w+w+w+i+i+i+s+o+x+j+i+i+i+w+n+",
"i+i+i+i+i+i+j+d+x+y+i+i+i+i+n+n+n+n+k+k+k+k+k+k+l+B+i+i+i+i+i+i+i+i+i+i+w+w+w+w+n+i+i+i+i+i+w+i+w+i+n+n+w+l+y+x+x+B+i+t+i+i+w+i+",
"n+w+i+i+i+i+i+s+d+x+x+x+x+x+x+x+x+x+x+x+x+x+x+x+x+x+x+x+x+x+x+x+x+x+x+x+x+x+x+x+x+x+x+x+x+x+x+x+x+x+x+x+x+y+o+C+B+i+i+i+i+i+i+w+",
"w+n+i+n+i+i+i+i+u+u+o+y+o+x+x+x+x+x+x+x+x+x+x+x+x+x+x+x+x+x+x+x+x+x+x+x+x+x+x+x+x+x+x+x+x+x+x+x+x+x+x+y+y+s+A+u+t+i+i+i+i+i+w+n+",
"i+i+i+i+i+i+i+i+n+i+i+i+i+i+i+i+i+i+i+i+i+i+i+i+i+i+i+i+i+i+i+i+i+i+i+i+i+i+i+i+i+i+i+i+i+p+p+w+n+i+i+i+i+i+i+i+i+i+i+i+i+i+i+i+",
"i+i+i+i+i+i+i+i+i+t+l+n+t+n+i+i+i+i+t+i+i+i+t+t+i+t+t+i+i+i+i+i+i+i+i+t+t+i+t+t+i+t+i+i+i+w+i+i+i+i+i+i+n+i+i+i+t+i+i+i+i+i+i+i+",
"i+i+i+i+i+i+i+i+i+i+i+i+i+i+n+i+i+i+i+t+t+t+t+i+i+i+i+i+t+t+i+i+i+i+t+t+t+t+t+t+t+i+i+i+i+i+i+i+t+i+i+i+p+i+i+i+i+i+i+i+i+i+i+i+"};
